<?xml version="1.0" encoding="us-ascii" standalone="no"?><svg xmlns="http://www.w3.org/2000/svg" xmlns:xlink="http://www.w3.org/1999/xlink" contentStyleType="text/css" height="1294px" preserveAspectRatio="none" style="width:1317px;height:1294px;background:#FFFFFF;" version="1.1" viewBox="0 0 1317 1294" width="1317px" zoomAndPan="magnify"><defs/><g><text fill="#000000" font-family="sans-serif" font-size="14" font-weight="bold" lengthAdjust="spacing" textLength="207" x="548" y="23.5352">Git format-patch and Git am</text><!--cluster subRepo--><g id="cluster_subRepo"><path d="M8.5,43.4883 L118.5,43.4883 A3.75,3.75 0 0 1 121,45.9883 L128,65.9766 L311.5,65.9766 A2.5,2.5 0 0 1 314,68.4766 L314,560.0583 A2.5,2.5 0 0 1 311.5,562.5583 L8.5,562.5583 A2.5,2.5 0 0 1 6,560.0583 L6,45.9883 A2.5,2.5 0 0 1 8.5,43.4883 " fill="#CCFFFF" style="stroke:#000000;stroke-width:1.5;"/><line style="stroke:#000000;stroke-width:1.5;" x1="6" x2="128" y1="65.9766" y2="65.9766"/><text fill="#000000" font-family="sans-serif" font-size="14" font-weight="bold" lengthAdjust="spacing" textLength="109" x="10" y="59.0234">Sub Repository</text></g><!--cluster Cloud--><g id="cluster_Cloud"><path d="M371.6922,407.6011 C381.9364,392.0734 398.1217,393.1626 407.2339,408.8885 C418.3386,388.1149 436.4764,389.1894 447.59,408.8796 C457.1961,389.2622 470.5365,387.597 485.4484,403.1719 C494.6181,386.0051 514.0739,382.5864 525.6386,400.4221 C536.3396,382.6809 547.1189,381.3159 559.5441,398.7606 C569.7089,381.5646 586.4607,379.5846 598.1067,397.1158 C608.9761,378.622 623.9336,375.5833 636.0263,395.9212 C651.0282,378.2724 668.7962,380.3972 677.6741,402.36 C689.0119,385.8985 699.6498,381.4222 714.1544,398.9623 C727.2296,379.4163 746.8059,386.3579 754.5375,404.6634 C766.7774,385.1802 784.0281,387.6465 793.989,406.9798 C802.9378,388.6421 819.4302,391.6414 829.2033,406.0945 C844.158,388.3224 857.0513,387.492 869.8201,408.3904 C882.2646,391.2999 899.9245,394.4998 908,413.0683 C910.1428,414.2536 910.6598,416.6279 908.3563,418.1264 C931.6898,422.3165 936.904,440.2088 919.7211,456.4226 C939.5467,467.8255 941.4929,480.7117 921.4715,493.972 C941.8484,506.316 941.0995,522.6894 920.5896,534.1356 C935.2131,556.7559 925.7017,573.2797 901,578.5583 C902.3065,576.2794 904.6229,576.3193 905.7149,578.772 C892.9464,600.7468 879.8585,599.1616 863.5311,582.6755 C856.4556,602.6349 840.6475,602.148 828.6878,587.6083 C817.6376,607.9507 804.0899,608.071 790.4331,590.219 C778.9689,609.2405 764.6606,606.1934 753.492,589.9097 C744.9065,608.6164 727.9072,608.5061 716.6837,592.7252 C706.0506,612.6548 689.1832,610.5687 679.0104,592.2716 C667.1295,610.5382 655.8914,613.2331 641.6462,594.6703 C628.1428,616.4116 607.9884,611.5183 598.4621,590.6406 C588.3167,609.6453 574.5134,606.9315 562.9208,592.1636 C550.2395,610.1671 534.6385,604.1036 526.8349,587.1311 C513.6366,603.9227 501.6116,603.715 487.6964,587.9941 C475.5082,607.8041 458.7222,608.0445 447.2627,587.2682 C435.7239,603.9008 423.7829,605.1095 413.219,586.3309 C391.5437,603.505 371.1825,597.6985 362,571.5583 C364.4221,572.7178 364.4863,574.6255 362.6625,576.3696 C339.7573,561.7179 342.1905,546.1919 363.8159,532.7168 C344.8585,520.7007 348.5924,506.4752 364.3687,494.9677 C347.8196,481.6454 341.7967,468.2357 363.6528,454.2383 C343.8362,435.3358 341.4208,419.7096 369,406.0683 C370.5947,405.3234 371.44,405.9879 371.6922,407.6011 " fill="none" style="stroke:#181818;stroke-width:1.0;"/><text fill="#000000" font-family="sans-serif" font-size="14" font-weight="bold" lengthAdjust="spacing" textLength="5" x="632.5" y="424.6034">&#160;</text></g><!--cluster 0001-commit.patch--><g id="cluster_0001-commit.patch"><path d="M651,451.5683 L651,552.0583 A2.5,2.5 0 0 0 653.5,554.5583 L881.5,554.5583 A2.5,2.5 0 0 0 884,552.0583 L884,459.0683 L874,449.0683 L653.5,449.0683 A2.5,2.5 0 0 0 651,451.5683 " fill="none" style="stroke:#181818;stroke-width:1.0;"/><path d="M874,449.0683 L874,456.5683 A2.5,2.5 0 0 0 876.5,459.0683 L884,459.0683 " fill="none" style="stroke:#181818;stroke-width:1.0;"/><text fill="#000000" font-family="sans-serif" font-size="14" font-weight="bold" lengthAdjust="spacing" textLength="142" x="696.5" y="464.6034">0001-commit.patch</text></g><!--cluster 0002-commit.patch--><g id="cluster_0002-commit.patch"><path d="M394,451.5683 L394,552.0583 A2.5,2.5 0 0 0 396.5,554.5583 L624.5,554.5583 A2.5,2.5 0 0 0 627,552.0583 L627,459.0683 L617,449.0683 L396.5,449.0683 A2.5,2.5 0 0 0 394,451.5683 " fill="none" style="stroke:#181818;stroke-width:1.0;"/><path d="M617,449.0683 L617,456.5683 A2.5,2.5 0 0 0 619.5,459.0683 L627,459.0683 " fill="none" style="stroke:#181818;stroke-width:1.0;"/><text fill="#000000" font-family="sans-serif" font-size="14" font-weight="bold" lengthAdjust="spacing" textLength="142" x="439.5" y="464.6034">0002-commit.patch</text></g><!--cluster mainRepoBefore--><g id="cluster_mainRepoBefore"><path d="M950.5,367.3783 L1069.5,367.3783 A3.75,3.75 0 0 1 1072,369.8783 L1079,389.8666 L1307.5,389.8666 A2.5,2.5 0 0 1 1310,392.3666 L1310,633.7583 A2.5,2.5 0 0 1 1307.5,636.2583 L950.5,636.2583 A2.5,2.5 0 0 1 948,633.7583 L948,369.8783 A2.5,2.5 0 0 1 950.5,367.3783 " fill="none" style="stroke:#000000;stroke-width:1.5;"/><line style="stroke:#000000;stroke-width:1.5;" x1="948" x2="1079" y1="389.8666" y2="389.8666"/><text fill="#000000" font-family="sans-serif" font-size="14" font-weight="bold" lengthAdjust="spacing" textLength="118" x="952" y="382.9134">Main Repository</text></g><!--cluster mainRepoAfter--><g id="cluster_mainRepoAfter"><path d="M625.5,788.2583 L744.5,788.2583 A3.75,3.75 0 0 1 747,790.7583 L754,810.7466 L982.5,810.7466 A2.5,2.5 0 0 1 985,813.2466 L985,1285.0583 A2.5,2.5 0 0 1 982.5,1287.5583 L625.5,1287.5583 A2.5,2.5 0 0 1 623,1285.0583 L623,790.7583 A2.5,2.5 0 0 1 625.5,788.2583 " fill="none" style="stroke:#000000;stroke-width:1.5;"/><line style="stroke:#000000;stroke-width:1.5;" x1="623" x2="754" y1="810.7466" y2="810.7466"/><text fill="#000000" font-family="sans-serif" font-size="14" font-weight="bold" lengthAdjust="spacing" textLength="118" x="627" y="803.7934">Main Repository</text></g><!--entity subGit--><g id="elem_subGit"><path d="M30,96.4883 C30,86.4883 98,86.4883 98,86.4883 C98,86.4883 166,86.4883 166,96.4883 L166,294.3711 C166,304.3711 98,304.3711 98,304.3711 C98,304.3711 30,304.3711 30,294.3711 L30,96.4883 " fill="#F1F1F1" style="stroke:#181818;stroke-width:0.5;"/><path d="M30,96.4883 C30,106.4883 98,106.4883 98,106.4883 C98,106.4883 166,106.4883 166,96.4883 " fill="none" style="stroke:#181818;stroke-width:0.5;"/><text fill="#000000" font-family="sans-serif" font-size="14" lengthAdjust="spacing" textLength="76" x="40" y="124.0234">.git for Sub</text><path d="M30,121.9766 C30,131.9766 98,131.9766 98,131.9766 C98,131.9766 166,131.9766 166,121.9766 " fill="none" style="stroke:#181818;stroke-width:1.0;"/><path d="M30,123.9766 C30,133.9766 98,133.9766 98,133.9766 C98,133.9766 166,133.9766 166,123.9766 " fill="none" style="stroke:#181818;stroke-width:1.0;"/><text fill="#000000" font-family="sans-serif" font-size="14" lengthAdjust="spacing" textLength="109" x="40" y="144.5117">commit: AofSub</text><text fill="#000000" font-family="sans-serif" font-size="14" lengthAdjust="spacing" textLength="4" x="40" y="161">&#160;</text><text fill="#000000" font-family="sans-serif" font-size="14" lengthAdjust="spacing" textLength="100" x="56" y="177.4883">change dir foo</text><path d="M30,179.4414 C30,189.4414 98,189.4414 98,189.4414 C98,189.4414 166,189.4414 166,179.4414 " fill="none" style="stroke:#181818;stroke-width:1.0;"/><text fill="#000000" font-family="sans-serif" font-size="14" lengthAdjust="spacing" textLength="107" x="40" y="201.9766">commit: BofSub</text><text fill="#000000" font-family="sans-serif" font-size="14" lengthAdjust="spacing" textLength="4" x="40" y="218.4648">&#160;</text><text fill="#000000" font-family="sans-serif" font-size="14" lengthAdjust="spacing" textLength="76" x="56" y="234.9531">add dir foo</text><path d="M30,236.9063 C30,246.9063 98,246.9063 98,246.9063 C98,246.9063 166,246.9063 166,236.9063 " fill="none" style="stroke:#181818;stroke-width:1.0;"/><text fill="#000000" font-family="sans-serif" font-size="14" lengthAdjust="spacing" textLength="109" x="40" y="259.4414">commit: CofSub</text><text fill="#000000" font-family="sans-serif" font-size="14" lengthAdjust="spacing" textLength="4" x="40" y="275.9297">&#160;</text><text fill="#000000" font-family="sans-serif" font-size="14" lengthAdjust="spacing" textLength="76" x="56" y="292.418">add dir bar</text></g><!--entity Foo--><g id="elem_Foo"><path d="M203.5,168.1883 L244.5,168.1883 A3.75,3.75 0 0 1 247,170.6883 L254,189.1883 L268.5,189.1883 A2.5,2.5 0 0 1 271,191.6883 L271,220.1766 A2.5,2.5 0 0 1 268.5,222.6766 L203.5,222.6766 A2.5,2.5 0 0 1 201,220.1766 L201,170.6883 A2.5,2.5 0 0 1 203.5,168.1883 " fill="#F1F1F1" style="stroke:#181818;stroke-width:0.5;"/><line style="stroke:#181818;stroke-width:0.5;" x1="201" x2="254" y1="189.1883" y2="189.1883"/><text fill="#000000" font-family="sans-serif" font-size="14" lengthAdjust="spacing" textLength="26" x="211" y="209.7234">Foo</text></g><!--entity Bar--><g id="elem_Bar"><path d="M65.5,484.0683 L106.5,484.0683 A3.75,3.75 0 0 1 109,486.5683 L116,505.0683 L130.5,505.0683 A2.5,2.5 0 0 1 133,507.5683 L133,536.0566 A2.5,2.5 0 0 1 130.5,538.5566 L65.5,538.5566 A2.5,2.5 0 0 1 63,536.0566 L63,486.5683 A2.5,2.5 0 0 1 65.5,484.0683 " fill="#F1F1F1" style="stroke:#181818;stroke-width:0.5;"/><line style="stroke:#181818;stroke-width:0.5;" x1="63" x2="116" y1="505.0683" y2="505.0683"/><text fill="#000000" font-family="sans-serif" font-size="14" lengthAdjust="spacing" textLength="22" x="73" y="525.6034">Bar</text></g><!--entity add dir bar--><g id="elem_add dir bar"><text fill="#000000" font-family="sans-serif" font-size="14" lengthAdjust="spacing" textLength="76" x="782" y="516.6034">add dir bar</text></g><!--entity __b--><g id="elem___b"><path d="M669.5,484.0683 L710.5,484.0683 A3.75,3.75 0 0 1 713,486.5683 L720,505.0683 L734.5,505.0683 A2.5,2.5 0 0 1 737,507.5683 L737,536.0566 A2.5,2.5 0 0 1 734.5,538.5566 L669.5,538.5566 A2.5,2.5 0 0 1 667,536.0566 L667,486.5683 A2.5,2.5 0 0 1 669.5,484.0683 " fill="#F1F1F1" style="stroke:#181818;stroke-width:0.5;"/><line style="stroke:#181818;stroke-width:0.5;" x1="667" x2="720" y1="505.0683" y2="505.0683"/><text fill="#000000" font-family="sans-serif" font-size="14" lengthAdjust="spacing" textLength="22" x="677" y="525.6034">Bar</text></g><!--entity add dir foo--><g id="elem_add dir foo"><text fill="#000000" font-family="sans-serif" font-size="14" lengthAdjust="spacing" textLength="76" x="525" y="516.6034">add dir foo</text></g><!--entity __a--><g id="elem___a"><path d="M412.5,484.0683 L453.5,484.0683 A3.75,3.75 0 0 1 456,486.5683 L463,505.0683 L477.5,505.0683 A2.5,2.5 0 0 1 480,507.5683 L480,536.0566 A2.5,2.5 0 0 1 477.5,538.5566 L412.5,538.5566 A2.5,2.5 0 0 1 410,536.0566 L410,486.5683 A2.5,2.5 0 0 1 412.5,484.0683 " fill="#F1F1F1" style="stroke:#181818;stroke-width:0.5;"/><line style="stroke:#181818;stroke-width:0.5;" x1="410" x2="463" y1="505.0683" y2="505.0683"/><text fill="#000000" font-family="sans-serif" font-size="14" lengthAdjust="spacing" textLength="26" x="420" y="525.6034">Foo</text></g><!--entity mainGitBefore--><g id="elem_mainGitBefore"><path d="M1158.5,412.3783 C1158.5,402.3783 1226,402.3783 1226,402.3783 C1226,402.3783 1293.5,402.3783 1293.5,412.3783 L1293.5,610.2611 C1293.5,620.2611 1226,620.2611 1226,620.2611 C1226,620.2611 1158.5,620.2611 1158.5,610.2611 L1158.5,412.3783 " fill="#F1F1F1" style="stroke:#181818;stroke-width:0.5;"/><path d="M1158.5,412.3783 C1158.5,422.3783 1226,422.3783 1226,422.3783 C1226,422.3783 1293.5,422.3783 1293.5,412.3783 " fill="none" style="stroke:#181818;stroke-width:0.5;"/><text fill="#000000" font-family="sans-serif" font-size="14" lengthAdjust="spacing" textLength="83" x="1168.5" y="439.9134">.git for Main</text><path d="M1158.5,437.8666 C1158.5,447.8666 1226,447.8666 1226,447.8666 C1226,447.8666 1293.5,447.8666 1293.5,437.8666 " fill="none" style="stroke:#181818;stroke-width:1.0;"/><path d="M1158.5,439.8666 C1158.5,449.8666 1226,449.8666 1226,449.8666 C1226,449.8666 1293.5,449.8666 1293.5,439.8666 " fill="none" style="stroke:#181818;stroke-width:1.0;"/><text fill="#000000" font-family="sans-serif" font-size="14" lengthAdjust="spacing" textLength="115" x="1168.5" y="460.4017">commit: 2ofMain</text><text fill="#000000" font-family="sans-serif" font-size="14" lengthAdjust="spacing" textLength="4" x="1168.5" y="476.89">&#160;</text><text fill="#000000" font-family="sans-serif" font-size="14" lengthAdjust="spacing" textLength="88" x="1184.5" y="493.3783">change FileA</text><path d="M1158.5,495.3314 C1158.5,505.3314 1226,505.3314 1226,505.3314 C1226,505.3314 1293.5,505.3314 1293.5,495.3314 " fill="none" style="stroke:#181818;stroke-width:1.0;"/><text fill="#000000" font-family="sans-serif" font-size="14" lengthAdjust="spacing" textLength="115" x="1168.5" y="517.8666">commit: 3ofMain</text><text fill="#000000" font-family="sans-serif" font-size="14" lengthAdjust="spacing" textLength="4" x="1168.5" y="534.3548">&#160;</text><text fill="#000000" font-family="sans-serif" font-size="14" lengthAdjust="spacing" textLength="65" x="1184.5" y="550.8431">add file A</text><path d="M1158.5,552.7963 C1158.5,562.7963 1226,562.7963 1226,562.7963 C1226,562.7963 1293.5,562.7963 1293.5,552.7963 " fill="none" style="stroke:#181818;stroke-width:1.0;"/><text fill="#000000" font-family="sans-serif" font-size="14" lengthAdjust="spacing" textLength="115" x="1168.5" y="575.3314">commit: 4ofMain</text><text fill="#000000" font-family="sans-serif" font-size="14" lengthAdjust="spacing" textLength="4" x="1168.5" y="591.8197">&#160;</text><text fill="#000000" font-family="sans-serif" font-size="14" lengthAdjust="spacing" textLength="61" x="1184.5" y="608.308">add dir B</text></g><!--entity FileABefore--><g id="elem_FileABefore"><path d="M1069,495.5683 L1069,527.0566 A2.5,2.5 0 0 0 1071.5,529.5566 L1120.5,529.5566 A2.5,2.5 0 0 0 1123,527.0566 L1123,503.0683 L1113,493.0683 L1071.5,493.0683 A2.5,2.5 0 0 0 1069,495.5683 " fill="#F1F1F1" style="stroke:#181818;stroke-width:0.5;"/><path d="M1113,493.0683 L1113,500.5683 A2.5,2.5 0 0 0 1115.5,503.0683 L1123,503.0683 " fill="#F1F1F1" style="stroke:#181818;stroke-width:0.5;"/><text fill="#000000" font-family="sans-serif" font-size="14" lengthAdjust="spacing" textLength="34" x="1079" y="516.6034">FileA</text></g><!--entity DirBBefore--><g id="elem_DirBBefore"><path d="M966.5,484.0683 L1007.5,484.0683 A3.75,3.75 0 0 1 1010,486.5683 L1017,505.0683 L1031.5,505.0683 A2.5,2.5 0 0 1 1034,507.5683 L1034,536.0566 A2.5,2.5 0 0 1 1031.5,538.5566 L966.5,538.5566 A2.5,2.5 0 0 1 964,536.0566 L964,486.5683 A2.5,2.5 0 0 1 966.5,484.0683 " fill="#F1F1F1" style="stroke:#181818;stroke-width:0.5;"/><line style="stroke:#181818;stroke-width:0.5;" x1="964" x2="1017" y1="505.0683" y2="505.0683"/><text fill="#000000" font-family="sans-serif" font-size="14" lengthAdjust="spacing" textLength="28" x="974" y="525.6034">DirB</text></g><!--entity mainGitAfter--><g id="elem_mainGitAfter"><path d="M639,833.2583 C639,823.2583 707,823.2583 707,823.2583 C707,823.2583 775,823.2583 775,833.2583 L775,1146.0708 C775,1156.0708 707,1156.0708 707,1156.0708 C707,1156.0708 639,1156.0708 639,1146.0708 L639,833.2583 " fill="#F1F1F1" style="stroke:#181818;stroke-width:0.5;"/><path d="M639,833.2583 C639,843.2583 707,843.2583 707,843.2583 C707,843.2583 775,843.2583 775,833.2583 " fill="none" style="stroke:#181818;stroke-width:0.5;"/><text fill="#000000" font-family="sans-serif" font-size="14" lengthAdjust="spacing" textLength="83" x="649" y="860.7934">.git for Main</text><path d="M639,858.7466 C639,868.7466 707,868.7466 707,868.7466 C707,868.7466 775,868.7466 775,858.7466 " fill="none" style="stroke:#181818;stroke-width:1.0;"/><path d="M639,860.7466 C639,870.7466 707,870.7466 707,870.7466 C707,870.7466 775,870.7466 775,860.7466 " fill="none" style="stroke:#181818;stroke-width:1.0;"/><text fill="#000000" font-family="sans-serif" font-size="14" lengthAdjust="spacing" textLength="114" x="649" y="881.2817">commit: BofSub*</text><text fill="#000000" font-family="sans-serif" font-size="14" lengthAdjust="spacing" textLength="4" x="649" y="897.77">&#160;</text><text fill="#000000" font-family="sans-serif" font-size="14" lengthAdjust="spacing" textLength="76" x="665" y="914.2583">add dir foo</text><path d="M639,916.2114 C639,926.2114 707,926.2114 707,926.2114 C707,926.2114 775,926.2114 775,916.2114 " fill="none" style="stroke:#181818;stroke-width:1.0;"/><text fill="#000000" font-family="sans-serif" font-size="14" lengthAdjust="spacing" textLength="116" x="649" y="938.7466">commit: CofSub*</text><text fill="#000000" font-family="sans-serif" font-size="14" lengthAdjust="spacing" textLength="4" x="649" y="955.2348">&#160;</text><text fill="#000000" font-family="sans-serif" font-size="14" lengthAdjust="spacing" textLength="76" x="665" y="971.7231">add dir bar</text><path d="M639,973.6763 C639,983.6763 707,983.6763 707,983.6763 C707,983.6763 775,983.6763 775,973.6763 " fill="none" style="stroke:#181818;stroke-width:1.0;"/><text fill="#000000" font-family="sans-serif" font-size="14" lengthAdjust="spacing" textLength="115" x="649" y="996.2114">commit: 2ofMain</text><text fill="#000000" font-family="sans-serif" font-size="14" lengthAdjust="spacing" textLength="4" x="649" y="1012.6997">&#160;</text><text fill="#000000" font-family="sans-serif" font-size="14" lengthAdjust="spacing" textLength="88" x="665" y="1029.188">change FileA</text><path d="M639,1031.1411 C639,1041.1411 707,1041.1411 707,1041.1411 C707,1041.1411 775,1041.1411 775,1031.1411 " fill="none" style="stroke:#181818;stroke-width:1.0;"/><text fill="#000000" font-family="sans-serif" font-size="14" lengthAdjust="spacing" textLength="115" x="649" y="1053.6763">commit: 3ofMain</text><text fill="#000000" font-family="sans-serif" font-size="14" lengthAdjust="spacing" textLength="4" x="649" y="1070.1645">&#160;</text><text fill="#000000" font-family="sans-serif" font-size="14" lengthAdjust="spacing" textLength="65" x="665" y="1086.6528">add file A</text><path d="M639,1088.6059 C639,1098.6059 707,1098.6059 707,1098.6059 C707,1098.6059 775,1098.6059 775,1088.6059 " fill="none" style="stroke:#181818;stroke-width:1.0;"/><text fill="#000000" font-family="sans-serif" font-size="14" lengthAdjust="spacing" textLength="115" x="649" y="1111.1411">commit: 4ofMain</text><text fill="#000000" font-family="sans-serif" font-size="14" lengthAdjust="spacing" textLength="4" x="649" y="1127.6294">&#160;</text><text fill="#000000" font-family="sans-serif" font-size="14" lengthAdjust="spacing" textLength="61" x="665" y="1144.1177">add dir B</text></g><!--entity FileAAfter--><g id="elem_FileAAfter"><path d="M810,973.9183 L810,1005.4066 A2.5,2.5 0 0 0 812.5,1007.9066 L861.5,1007.9066 A2.5,2.5 0 0 0 864,1005.4066 L864,981.4183 L854,971.4183 L812.5,971.4183 A2.5,2.5 0 0 0 810,973.9183 " fill="#F1F1F1" style="stroke:#181818;stroke-width:0.5;"/><path d="M854,971.4183 L854,978.9183 A2.5,2.5 0 0 0 856.5,981.4183 L864,981.4183 " fill="#F1F1F1" style="stroke:#181818;stroke-width:0.5;"/><text fill="#000000" font-family="sans-serif" font-size="14" lengthAdjust="spacing" textLength="34" x="820" y="994.9534">FileA</text></g><!--entity DirBAfter--><g id="elem_DirBAfter"><path d="M901.5,962.4183 L942.5,962.4183 A3.75,3.75 0 0 1 945,964.9183 L952,983.4183 L966.5,983.4183 A2.5,2.5 0 0 1 969,985.9183 L969,1014.4066 A2.5,2.5 0 0 1 966.5,1016.9066 L901.5,1016.9066 A2.5,2.5 0 0 1 899,1014.4066 L899,964.9183 A2.5,2.5 0 0 1 901.5,962.4183 " fill="#F1F1F1" style="stroke:#181818;stroke-width:0.5;"/><line style="stroke:#181818;stroke-width:0.5;" x1="899" x2="952" y1="983.4183" y2="983.4183"/><text fill="#000000" font-family="sans-serif" font-size="14" lengthAdjust="spacing" textLength="28" x="909" y="1003.9534">DirB</text></g><!--entity _a--><g id="elem__a"><path d="M796.5,1217.0683 L837.5,1217.0683 A3.75,3.75 0 0 1 840,1219.5683 L847,1238.0683 L861.5,1238.0683 A2.5,2.5 0 0 1 864,1240.5683 L864,1269.0566 A2.5,2.5 0 0 1 861.5,1271.5566 L796.5,1271.5566 A2.5,2.5 0 0 1 794,1269.0566 L794,1219.5683 A2.5,2.5 0 0 1 796.5,1217.0683 " fill="#AAFFAA" style="stroke:#181818;stroke-width:0.5;"/><line style="stroke:#181818;stroke-width:0.5;" x1="794" x2="847" y1="1238.0683" y2="1238.0683"/><text fill="#000000" font-family="sans-serif" font-size="14" lengthAdjust="spacing" textLength="26" x="804" y="1258.6034">Foo</text></g><!--entity _b--><g id="elem__b"><path d="M901.5,1217.0683 L942.5,1217.0683 A3.75,3.75 0 0 1 945,1219.5683 L952,1238.0683 L966.5,1238.0683 A2.5,2.5 0 0 1 969,1240.5683 L969,1269.0566 A2.5,2.5 0 0 1 966.5,1271.5566 L901.5,1271.5566 A2.5,2.5 0 0 1 899,1269.0566 L899,1219.5683 A2.5,2.5 0 0 1 901.5,1217.0683 " fill="#AAFFAA" style="stroke:#181818;stroke-width:0.5;"/><line style="stroke:#181818;stroke-width:0.5;" x1="899" x2="952" y1="1238.0683" y2="1238.0683"/><text fill="#000000" font-family="sans-serif" font-size="14" lengthAdjust="spacing" textLength="22" x="909" y="1258.6034">Bar</text></g><!--entity apply--><g id="elem_apply"><ellipse cx="707" cy="712.2583" fill="#F1F1F1" rx="8" ry="8" style="stroke:#181818;stroke-width:0.5;"/><text fill="#000000" font-family="sans-serif" font-size="14" lengthAdjust="spacing" textLength="376" x="519" y="742.7934">git am 0001-commit.patch; git am 0002-commit.patch</text></g><!--link subRepo to Cloud--><g id="link_subRepo_Cloud"><path d="M314.0369,241.4916 C314.3498,243.2455 314.6696,245.0383 314.9959,246.8677 C320.2175,276.137 327.1088,314.7633 334,353.3883 C340.8913,392.0133 347.7825,430.637 353.0041,459.9014 C353.3304,461.7304 353.6502,463.5229 353.9631,465.2765 " fill="none" id="subRepo-to-Cloud" style="stroke:#181818;stroke-width:1.0;"/><polygon fill="#181818" points="353.9631,465.2765,356.3201,455.7138,353.0849,460.3543,348.4444,457.1191,353.9631,465.2765" style="stroke:#181818;stroke-width:1.0;"/><text fill="#000000" font-family="sans-serif" font-size="13" lengthAdjust="spacing" textLength="214" x="333" y="347.9466">git format-patch CofSub^..BofSub</text></g><!--link Cloud to apply--><g id="link_Cloud_apply"><path d="M365.5039,587.0729 C365.5526,587.2985 365.6018,587.524 365.6515,587.7496 C365.8502,588.6519 366.0563,589.5544 366.2701,590.4566 C366.6975,592.261 367.1555,594.0643 367.6459,595.8625 C368.6267,599.4588 369.7373,603.0345 370.9928,606.5577 C376.015,620.6502 383.3575,633.9008 394,644.2583 C439.4,688.4483 652.21,707.0683 698.22,710.6183 " fill="none" id="Cloud-apply" style="stroke:#181818;stroke-width:1.0;stroke-dasharray:7.0,7.0;"/></g><!--link mainGitBefore to apply--><g id="link_mainGitBefore_apply"><path d="M1168.36,620.4683 C1160.17,629.5483 1151.06,637.7283 1141,644.2583 C1069.14,690.9083 788.95,707.2883 721.61,710.5883 " fill="none" id="mainGitBefore-to-apply" style="stroke:#181818;stroke-width:1.0;"/><polygon fill="#181818" points="716.77,710.8683,725.954,714.4257,721.7641,710.625,725.5647,706.4351,716.77,710.8683" style="stroke:#181818;stroke-width:1.0;"/></g><!--link apply to mainGitAfter--><g id="link_apply_mainGitAfter"><path d="M707,721.1983 C707,737.0383 707,774.6583 707,816.8383 " fill="none" id="apply-to-mainGitAfter" style="stroke:#181818;stroke-width:1.0;"/><polygon fill="#181818" points="707,821.8183,711,812.8183,707,816.8183,703,812.8183,707,821.8183" style="stroke:#181818;stroke-width:1.0;"/></g><!--SRC=[rLJ9QiCm4BthAmRb5h19qvvIKh1Jt5ClxR6qGLuZi2CZAuSGyk_LI8wNn35fUweDnhEy6UdDehZA4tZX2b8X2wQSagbe0smR6oKh24b57YSIgbtubfG2M0NqVHS22XLNGkufJ5P100S2-ecPOY6h4lJ721z6Yu-RsIoWqOrokLms_v4e2guMu8aKNHgziMtODaiWvbA748t9SIxG_W2QnV4jqDK8D6JIw3_Dj-Q41aBGdi9daf8Z8L4kTZ6ip1SPqw_b9-MQxzbiTkVOhAub_D0apLcOv40xUMbZgxEirw49wfzinrxe-OsXqzFXUw6P2TrSx8YtgOq5uriikv_eCYR6xrMhUgrmrWK8qMrG8mQQ0GDqkk6Y9dEH6fUXRWZqXRsnWjuFWV7wXgfHwCCrA3BdTri1GvcJT6WnSgypdhdqEmueqW5glLHfwGVCMi0lYBLpClt3e4p79-KAzXyLj2t6S3rRkordTuxQCOA95tWzMpkzreRxWij8fsLbcU-DDJFRzt9JF49hwGyw9UIqentdoUwU1MJdgztMxijrwqLfTvJhsjoaFx0OoEhjoL3kDjut]
@startuml
title Git format-patch and Git am

folder subRepo as "Sub Repository" #CFF {
    database subGit [
        .git for Sub
        ===
        commit: AofSub

            change dir foo
        - -
        commit: BofSub

            add dir foo
        - -
        commit: CofSub

            add dir bar
    ]
    folder "Foo"
    folder "Bar"
}

cloud Cloud as " " {
    file 0001-commit.patch {
        label "add dir bar"
        folder __b as "Bar"
    }
    file 0002-commit.patch {
        label "add dir foo"
        folder __a as "Foo"
    }
}

folder mainRepoBefore as "Main Repository" {
    database mainGitBefore [
        .git for Main
        ==
        commit: 2ofMain

            change FileA
        - -
        commit: 3ofMain

            add file A
        - -
        commit: 4ofMain

            add dir B
    ]
    file FileABefore as "FileA"
    folder DirBBefore as "DirB"
}

folder mainRepoAfter as "Main Repository" {
    database mainGitAfter [
        .git for Main
        ==
        commit: BofSub*

            add dir foo
        - -
        commit: CofSub*

            add dir bar
        - -
        commit: 2ofMain

            change FileA
        - -
        commit: 3ofMain

            add file A
        - -
        commit: 4ofMain

            add dir B
    ]
    file FileAAfter as "FileA"
    folder DirBAfter as "DirB"
    folder _a as "Foo" #AFA
    folder _b as "Bar" #AFA
}

circle apply as "git am 0001-commit.patch; git am 0002-commit.patch"

subRepo - -> Cloud: git format-patch CofSub^..BofSub
Cloud .. apply
mainGitBefore - -> apply
apply - -> mainGitAfter
@enduml

PlantUML version 1.2023.5(Sat Mar 25 02:54:30 JST 2023)
(GPL source distribution)
Java Runtime: OpenJDK Runtime Environment
JVM: OpenJDK 64-Bit Server VM
Default Encoding: UTF-8
Language: en
Country: JP
--></g></svg>