<?xml version="1.0" encoding="UTF-8" standalone="no"?><svg xmlns="http://www.w3.org/2000/svg" xmlns:xlink="http://www.w3.org/1999/xlink" contentScriptType="application/ecmascript" contentStyleType="text/css" height="412px" preserveAspectRatio="none" style="width:598px;height:412px;background:#FFFFFF;" version="1.1" viewBox="0 0 598 412" width="598px" zoomAndPan="magnify"><defs><filter height="300%" id="f1kd0c2l4rfa5g" width="300%" x="-1" y="-1"><feGaussianBlur result="blurOut" stdDeviation="2.0"/><feColorMatrix in="blurOut" result="blurOut2" type="matrix" values="0 0 0 0 0 0 0 0 0 0 0 0 0 0 0 0 0 0 .4 0"/><feOffset dx="4.0" dy="4.0" in="blurOut2" result="blurOut3"/><feBlend in="SourceGraphic" in2="blurOut3" mode="normal"/></filter></defs><g><line style="stroke:#A80036;stroke-width:1.0;stroke-dasharray:5.0,5.0;" x1="35" x2="35" y1="88.4883" y2="327.6621"/><line style="stroke:#A80036;stroke-width:1.0;stroke-dasharray:5.0,5.0;" x1="157.5" x2="157.5" y1="88.4883" y2="327.6621"/><line style="stroke:#A80036;stroke-width:1.0;stroke-dasharray:5.0,5.0;" x1="248.5" x2="248.5" y1="88.4883" y2="327.6621"/><line style="stroke:#A80036;stroke-width:1.0;stroke-dasharray:5.0,5.0;" x1="344.5" x2="344.5" y1="88.4883" y2="327.6621"/><line style="stroke:#A80036;stroke-width:1.0;stroke-dasharray:5.0,5.0;" x1="433.5" x2="433.5" y1="88.4883" y2="327.6621"/><line style="stroke:#A80036;stroke-width:1.0;stroke-dasharray:5.0,5.0;" x1="557" x2="557" y1="88.4883" y2="327.6621"/><text fill="#000000" font-family="sans-serif" font-size="14" lengthAdjust="spacing" textLength="54" x="5" y="85.5352">Actor_A</text><ellipse cx="35" cy="15" fill="#44CC99" filter="url(#f1kd0c2l4rfa5g)" rx="8" ry="8" style="stroke:#A80036;stroke-width:2.0;"/><path d="M35,23 L35,50 M22,31 L48,31 M35,50 L22,65 M35,50 L48,65 " fill="none" filter="url(#f1kd0c2l4rfa5g)" style="stroke:#A80036;stroke-width:2.0;"/><text fill="#000000" font-family="sans-serif" font-size="14" lengthAdjust="spacing" textLength="54" x="5" y="340.1973">Actor_A</text><ellipse cx="35" cy="353.1504" fill="#44CC99" filter="url(#f1kd0c2l4rfa5g)" rx="8" ry="8" style="stroke:#A80036;stroke-width:2.0;"/><path d="M35,361.1504 L35,388.1504 M22,369.1504 L48,369.1504 M35,388.1504 L22,403.1504 M35,388.1504 L48,403.1504 " fill="none" filter="url(#f1kd0c2l4rfa5g)" style="stroke:#A80036;stroke-width:2.0;"/><rect fill="#44CC99" filter="url(#f1kd0c2l4rfa5g)" height="30.4883" style="stroke:#A80036;stroke-width:1.5;" width="71" x="120.5" y="53"/><text fill="#000000" font-family="sans-serif" font-size="14" lengthAdjust="spacing" textLength="57" x="127.5" y="73.5352">Inbox_A</text><rect fill="#44CC99" filter="url(#f1kd0c2l4rfa5g)" height="30.4883" style="stroke:#A80036;stroke-width:1.5;" width="71" x="120.5" y="326.6621"/><text fill="#000000" font-family="sans-serif" font-size="14" lengthAdjust="spacing" textLength="57" x="127.5" y="347.1973">Inbox_A</text><rect fill="#44CC99" filter="url(#f1kd0c2l4rfa5g)" height="30.4883" style="stroke:#A80036;stroke-width:1.5;" width="83" x="205.5" y="53"/><text fill="#000000" font-family="sans-serif" font-size="14" lengthAdjust="spacing" textLength="69" x="212.5" y="73.5352">Outbox_A</text><rect fill="#44CC99" filter="url(#f1kd0c2l4rfa5g)" height="30.4883" style="stroke:#A80036;stroke-width:1.5;" width="83" x="205.5" y="326.6621"/><text fill="#000000" font-family="sans-serif" font-size="14" lengthAdjust="spacing" textLength="69" x="212.5" y="347.1973">Outbox_A</text><rect fill="#FEFECE" filter="url(#f1kd0c2l4rfa5g)" height="30.4883" style="stroke:#A80036;stroke-width:1.5;" width="81" x="302.5" y="53"/><text fill="#000000" font-family="sans-serif" font-size="14" lengthAdjust="spacing" textLength="67" x="309.5" y="73.5352">Outbox_B</text><rect fill="#FEFECE" filter="url(#f1kd0c2l4rfa5g)" height="30.4883" style="stroke:#A80036;stroke-width:1.5;" width="81" x="302.5" y="326.6621"/><text fill="#000000" font-family="sans-serif" font-size="14" lengthAdjust="spacing" textLength="67" x="309.5" y="347.1973">Outbox_B</text><rect fill="#FEFECE" filter="url(#f1kd0c2l4rfa5g)" height="30.4883" style="stroke:#A80036;stroke-width:1.5;" width="69" x="397.5" y="53"/><text fill="#000000" font-family="sans-serif" font-size="14" lengthAdjust="spacing" textLength="55" x="404.5" y="73.5352">Inbox_B</text><rect fill="#FEFECE" filter="url(#f1kd0c2l4rfa5g)" height="30.4883" style="stroke:#A80036;stroke-width:1.5;" width="69" x="397.5" y="326.6621"/><text fill="#000000" font-family="sans-serif" font-size="14" lengthAdjust="spacing" textLength="55" x="404.5" y="347.1973">Inbox_B</text><text fill="#000000" font-family="sans-serif" font-size="14" lengthAdjust="spacing" textLength="52" x="528" y="85.5352">Actor_B</text><ellipse cx="557" cy="15" fill="#FEFECE" filter="url(#f1kd0c2l4rfa5g)" rx="8" ry="8" style="stroke:#A80036;stroke-width:2.0;"/><path d="M557,23 L557,50 M544,31 L570,31 M557,50 L544,65 M557,50 L570,65 " fill="none" filter="url(#f1kd0c2l4rfa5g)" style="stroke:#A80036;stroke-width:2.0;"/><text fill="#000000" font-family="sans-serif" font-size="14" lengthAdjust="spacing" textLength="52" x="528" y="340.1973">Actor_B</text><ellipse cx="557" cy="353.1504" fill="#FEFECE" filter="url(#f1kd0c2l4rfa5g)" rx="8" ry="8" style="stroke:#A80036;stroke-width:2.0;"/><path d="M557,361.1504 L557,388.1504 M544,369.1504 L570,369.1504 M557,388.1504 L544,403.1504 M557,388.1504 L570,403.1504 " fill="none" filter="url(#f1kd0c2l4rfa5g)" style="stroke:#A80036;stroke-width:2.0;"/><rect fill="#EEEEEE" filter="url(#f1kd0c2l4rfa5g)" height="3" style="stroke:#EEEEEE;stroke-width:1.0;" width="591" x="0" y="119.1436"/><line style="stroke:#000000;stroke-width:1.0;" x1="0" x2="591" y1="119.1436" y2="119.1436"/><line style="stroke:#000000;stroke-width:1.0;" x1="0" x2="591" y1="122.1436" y2="122.1436"/><rect fill="#EEEEEE" filter="url(#f1kd0c2l4rfa5g)" height="23.3105" style="stroke:#000000;stroke-width:2.0;" width="127" x="232" y="108.4883"/><text fill="#000000" font-family="sans-serif" font-size="13" font-weight="bold" lengthAdjust="spacing" textLength="109" x="238" y="125.0566">Send a message</text><polygon fill="#A80036" points="237,159.1094,247,163.1094,237,167.1094,241,163.1094" style="stroke:#A80036;stroke-width:1.0;"/><line style="stroke:#A80036;stroke-width:1.0;" x1="35" x2="243" y1="163.1094" y2="163.1094"/><text fill="#000000" font-family="sans-serif" font-size="13" font-weight="bold" lengthAdjust="spacing" textLength="9" x="42" y="158.3672">1</text><text fill="#000000" font-family="sans-serif" font-size="13" lengthAdjust="spacing" textLength="90" x="55" y="158.3672">write message</text><polygon fill="#A80036" points="422,188.4199,432,192.4199,422,196.4199,426,192.4199" style="stroke:#A80036;stroke-width:1.0;"/><line style="stroke:#A80036;stroke-width:1.0;" x1="249" x2="428" y1="192.4199" y2="192.4199"/><text fill="#000000" font-family="sans-serif" font-size="13" font-weight="bold" lengthAdjust="spacing" textLength="9" x="256" y="187.6777">2</text><text fill="#000000" font-family="sans-serif" font-size="13" lengthAdjust="spacing" textLength="131" x="269" y="187.6777">server send message</text><polygon fill="#A80036" points="445,217.7305,435,221.7305,445,225.7305,441,221.7305" style="stroke:#A80036;stroke-width:1.0;"/><line style="stroke:#A80036;stroke-width:1.0;" x1="439" x2="556" y1="221.7305" y2="221.7305"/><text fill="#000000" font-family="sans-serif" font-size="13" font-weight="bold" lengthAdjust="spacing" textLength="9" x="451" y="216.9883">3</text><text fill="#000000" font-family="sans-serif" font-size="13" lengthAdjust="spacing" textLength="86" x="464" y="216.9883">read message</text><polygon fill="#A80036" points="356,247.041,346,251.041,356,255.041,352,251.041" style="stroke:#A80036;stroke-width:1.0;"/><line style="stroke:#A80036;stroke-width:1.0;" x1="350" x2="556" y1="251.041" y2="251.041"/><text fill="#000000" font-family="sans-serif" font-size="13" font-weight="bold" lengthAdjust="spacing" textLength="9" x="362" y="246.2988">4</text><text fill="#000000" font-family="sans-serif" font-size="13" lengthAdjust="spacing" textLength="90" x="375" y="246.2988">write message</text><polygon fill="#A80036" points="169,276.3516,159,280.3516,169,284.3516,165,280.3516" style="stroke:#A80036;stroke-width:1.0;"/><line style="stroke:#A80036;stroke-width:1.0;" x1="163" x2="344" y1="280.3516" y2="280.3516"/><text fill="#000000" font-family="sans-serif" font-size="13" font-weight="bold" lengthAdjust="spacing" textLength="9" x="175" y="275.6094">5</text><text fill="#000000" font-family="sans-serif" font-size="13" lengthAdjust="spacing" textLength="131" x="188" y="275.6094">server send message</text><polygon fill="#A80036" points="146,305.6621,156,309.6621,146,313.6621,150,309.6621" style="stroke:#A80036;stroke-width:1.0;"/><line style="stroke:#A80036;stroke-width:1.0;" x1="35" x2="152" y1="309.6621" y2="309.6621"/><text fill="#000000" font-family="sans-serif" font-size="13" font-weight="bold" lengthAdjust="spacing" textLength="9" x="42" y="304.9199">6</text><text fill="#000000" font-family="sans-serif" font-size="13" lengthAdjust="spacing" textLength="86" x="55" y="304.9199">read message</text><!--MD5=[cd7cd2a299bf7ec0548ef00a50e8c234]
@startuml

autonumber

actor Actor_A #44CC99
participant Inbox_A #44CC99
participant Outbox_A #44CC99
participant Outbox_B
participant Inbox_B
actor Actor_B

== Send a message ==
Actor_A -> Outbox_A: write message
Outbox_A -> Inbox_B: server send message
Actor_B -> Inbox_B: read message
Actor_B -> Outbox_B: write message
Outbox_B -> Inbox_A: server send message
Actor_A -> Inbox_A: read message

@enduml

PlantUML version 1.2021.7(Sun May 23 21:40:07 JST 2021)
(GPL source distribution)
Java Runtime: OpenJDK Runtime Environment
JVM: OpenJDK 64-Bit Server VM
Default Encoding: UTF-8
Language: en
Country: JP
--></g></svg>