<?xml version="1.0" encoding="UTF-8" standalone="no"?><svg xmlns="http://www.w3.org/2000/svg" xmlns:xlink="http://www.w3.org/1999/xlink" contentStyleType="text/css" height="464px" preserveAspectRatio="none" style="width:774px;height:464px;background:#FFFFFF;" version="1.1" viewBox="0 0 774 464" width="774px" zoomAndPan="magnify"><defs/><g><!--MD5=[d1ce0851b245ee0c2e4d7d13629961ac]
cluster Me--><g id="cluster_Me"><rect height="217" rx="2.5" ry="2.5" style="stroke:#181818;stroke-width:1.0;fill:none;" width="519" x="7" y="7"/><path d="M38,7 L38,16.4883 L28,26.4883 L7,26.4883 " fill="none" style="stroke:#181818;stroke-width:1.0;"/><text fill="#000000" font-family="sans-serif" font-size="14" font-weight="bold" lengthAdjust="spacing" textLength="21" x="10" y="21.5352">Me</text></g><!--MD5=[cab8c3f9e72a28d9300086ef1dc5f273]
cluster CoworkerA--><g id="cluster_CoworkerA"><rect height="93" rx="2.5" ry="2.5" style="stroke:#181818;stroke-width:1.0;fill:none;" width="98" x="550" y="69"/><path d="M639,69 L639,78.4883 L629,88.4883 L550,88.4883 " fill="none" style="stroke:#181818;stroke-width:1.0;"/><text fill="#000000" font-family="sans-serif" font-size="14" font-weight="bold" lengthAdjust="spacing" textLength="79" x="553" y="83.5352">CoworkerA</text></g><!--MD5=[d0f4621a4af42e55f12c8b4992b1785e]
cluster CoworkerB--><g id="cluster_CoworkerB"><rect height="93" rx="2.5" ry="2.5" style="stroke:#181818;stroke-width:1.0;fill:none;" width="96" x="672" y="69"/><path d="M760,69 L760,78.4883 L750,88.4883 L672,88.4883 " fill="none" style="stroke:#181818;stroke-width:1.0;"/><text fill="#000000" font-family="sans-serif" font-size="14" font-weight="bold" lengthAdjust="spacing" textLength="78" x="675" y="83.5352">CoworkerB</text></g><!--MD5=[6b2275800c25177d8ee0364e868cb06b]
cluster CoworkerC--><g id="cluster_CoworkerC"><rect height="93" rx="2.5" ry="2.5" style="stroke:#181818;stroke-width:1.0;fill:none;" width="98" x="610" y="248"/><path d="M699,248 L699,257.4883 L689,267.4883 L610,267.4883 " fill="none" style="stroke:#181818;stroke-width:1.0;"/><text fill="#000000" font-family="sans-serif" font-size="14" font-weight="bold" lengthAdjust="spacing" textLength="79" x="613" y="262.5352">CoworkerC</text></g><!--MD5=[1662ca28b3b2f3753e914f1472f86b21]
cluster FanA--><g id="cluster_FanA"><rect height="93" rx="2.5" ry="2.5" style="stroke:#181818;stroke-width:1.0;fill:none;" width="130" x="10" y="248"/><path d="M55,248 L55,257.4883 L45,267.4883 L10,267.4883 " fill="none" style="stroke:#181818;stroke-width:1.0;"/><text fill="#000000" font-family="sans-serif" font-size="14" font-weight="bold" lengthAdjust="spacing" textLength="35" x="13" y="262.5352">FanA</text></g><!--MD5=[7c3b753da830da96d8ea849ece5520c9]
cluster FanB--><g id="cluster_FanB"><rect height="93" rx="2.5" ry="2.5" style="stroke:#181818;stroke-width:1.0;fill:none;" width="128" x="164" y="248"/><path d="M208,248 L208,257.4883 L198,267.4883 L164,267.4883 " fill="none" style="stroke:#181818;stroke-width:1.0;"/><text fill="#000000" font-family="sans-serif" font-size="14" font-weight="bold" lengthAdjust="spacing" textLength="34" x="167" y="262.5352">FanB</text></g><!--MD5=[b35bb1882d4a6638f9cdf942f78a5c2c]
cluster FanC--><g id="cluster_FanC"><rect height="93" rx="2.5" ry="2.5" style="stroke:#181818;stroke-width:1.0;fill:none;" width="130" x="10" y="365"/><path d="M55,365 L55,374.4883 L45,384.4883 L10,384.4883 " fill="none" style="stroke:#181818;stroke-width:1.0;"/><text fill="#000000" font-family="sans-serif" font-size="14" font-weight="bold" lengthAdjust="spacing" textLength="35" x="13" y="379.5352">FanC</text></g><!--MD5=[d342058c8fb6f80e9d50d673c6908241]
class Developer--><g id="elem_Developer"><rect codeLine="8" fill="#F1F1F1" height="165.9063" id="Developer" rx="2.5" ry="2.5" style="stroke:#181818;stroke-width:0.5;" width="244" x="266" y="42"/><text fill="#000000" font-family="sans-serif" font-size="14" lengthAdjust="spacing" textLength="69" x="353.5" y="60.5352">Developer</text><line style="stroke:#181818;stroke-width:0.5;" x1="267" x2="509" y1="68.4883" y2="68.4883"/><ellipse cx="277" cy="79.4883" fill="none" rx="3" ry="3" style="stroke:#038048;stroke-width:1.0;"/><text fill="#000000" font-family="sans-serif" font-size="14" lengthAdjust="spacing" textLength="145" x="286" y="86.0234">uid: julian@farm.com</text><ellipse cx="277" cy="95.9766" fill="none" rx="3" ry="3" style="stroke:#038048;stroke-width:1.0;"/><text fill="#000000" font-family="sans-serif" font-size="14" lengthAdjust="spacing" textLength="218" x="286" y="102.5117">uid: walkingice@community.org</text><line style="stroke:#181818;stroke-width:1.0;" x1="267" x2="509" y1="109.4648" y2="109.4648"/><rect fill="none" height="6" style="stroke:#C82930;stroke-width:1.0;" width="6" x="274" y="117.4648"/><text fill="#000000" font-family="sans-serif" font-size="14" lengthAdjust="spacing" textLength="111" x="286" y="127">primary key pair</text><line style="stroke:#181818;stroke-width:1.0;" x1="267" x2="509" y1="133.9531" y2="133.9531"/><polygon fill="#4177AF" points="277,140.9531,273,146.9531,281,146.9531" style="stroke:#1963A0;stroke-width:1.0;"/><text fill="#000000" font-family="sans-serif" font-size="14" lengthAdjust="spacing" textLength="100" x="286" y="151.4883">subkey 1(sign)</text><polygon fill="#4177AF" points="277,157.4414,273,163.4414,281,163.4414" style="stroke:#1963A0;stroke-width:1.0;"/><text fill="#000000" font-family="sans-serif" font-size="14" lengthAdjust="spacing" textLength="122" x="286" y="167.9766">subkey 2(encrypt)</text><polygon fill="#4177AF" points="277,173.9297,273,179.9297,281,179.9297" style="stroke:#1963A0;stroke-width:1.0;"/><text fill="#000000" font-family="sans-serif" font-size="14" lengthAdjust="spacing" textLength="122" x="286" y="184.4648">subkey 3(encrypt)</text><polygon fill="#4177AF" points="277,190.418,273,196.418,281,196.418" style="stroke:#1963A0;stroke-width:1.0;"/><text fill="#000000" font-family="sans-serif" font-size="14" lengthAdjust="spacing" textLength="122" x="286" y="200.9531">subkey 4(encrypt)</text></g><!--MD5=[9647f4dcde76de75bd06e90671be004b]
class Creator--><g id="elem_Creator"><rect codeLine="20" fill="#F1F1F1" height="116.4414" id="Creator" rx="2.5" ry="2.5" style="stroke:#181818;stroke-width:0.5;" width="207" x="23.5" y="67"/><text fill="#000000" font-family="sans-serif" font-size="14" lengthAdjust="spacing" textLength="75" x="89.5" y="85.5352">Creator</text><line style="stroke:#181818;stroke-width:0.5;" x1="24.5" x2="229.5" y1="93.4883" y2="93.4883"/><ellipse cx="34.5" cy="104.4883" fill="none" rx="3" ry="3" style="stroke:#038048;stroke-width:1.0;"/><text fill="#000000" font-family="sans-serif" font-size="14" lengthAdjust="spacing" textLength="181" x="43.5" y="111.0234">uid: fatuber@give.me.food</text><line style="stroke:#181818;stroke-width:1.0;" x1="24.5" x2="229.5" y1="117.9766" y2="117.9766"/><rect fill="none" height="6" style="stroke:#C82930;stroke-width:1.0;" width="6" x="31.5" y="125.9766"/><text fill="#000000" font-family="sans-serif" font-size="14" lengthAdjust="spacing" textLength="111" x="43.5" y="135.5117">primary key pair</text><line style="stroke:#181818;stroke-width:1.0;" x1="24.5" x2="229.5" y1="142.4648" y2="142.4648"/><polygon fill="#4177AF" points="34.5,149.4648,30.5,155.4648,38.5,155.4648" style="stroke:#1963A0;stroke-width:1.0;"/><text fill="#000000" font-family="sans-serif" font-size="14" lengthAdjust="spacing" textLength="122" x="43.5" y="160">subkey 1(encrypt)</text><polygon fill="#4177AF" points="34.5,165.9531,30.5,171.9531,38.5,171.9531" style="stroke:#1963A0;stroke-width:1.0;"/><text fill="#000000" font-family="sans-serif" font-size="14" lengthAdjust="spacing" textLength="100" x="43.5" y="176.4883">subkey 2(sign)</text></g><!--MD5=[ae21cc32b24336b7bb6076737f6eecfe]
class WorkerA--><g id="elem_WorkerA"><rect codeLine="31" fill="#F1F1F1" height="42.4883" id="WorkerA" rx="2.5" ry="2.5" style="stroke:#181818;stroke-width:0.5;" width="65" x="566.5" y="104"/><text fill="#000000" font-family="sans-serif" font-size="14" lengthAdjust="spacing" textLength="59" x="569.5" y="122.5352">WorkerA</text><line style="stroke:#181818;stroke-width:0.5;" x1="567.5" x2="630.5" y1="130.4883" y2="130.4883"/><line style="stroke:#181818;stroke-width:0.5;" x1="567.5" x2="630.5" y1="138.4883" y2="138.4883"/></g><!--MD5=[2a9b0d78b4027490597e26295ebb11ba]
class WorkerB--><g id="elem_WorkerB"><rect codeLine="35" fill="#F1F1F1" height="42.4883" id="WorkerB" rx="2.5" ry="2.5" style="stroke:#181818;stroke-width:0.5;" width="63" x="688.5" y="104"/><text fill="#000000" font-family="sans-serif" font-size="14" lengthAdjust="spacing" textLength="57" x="691.5" y="122.5352">WorkerB</text><line style="stroke:#181818;stroke-width:0.5;" x1="689.5" x2="750.5" y1="130.4883" y2="130.4883"/><line style="stroke:#181818;stroke-width:0.5;" x1="689.5" x2="750.5" y1="138.4883" y2="138.4883"/></g><!--MD5=[5a843101e401f9a6b7bbfe9080641a65]
class WorkerC--><g id="elem_WorkerC"><rect codeLine="39" fill="#F1F1F1" height="42.4883" id="WorkerC" rx="2.5" ry="2.5" style="stroke:#181818;stroke-width:0.5;" width="65" x="626.5" y="283"/><text fill="#000000" font-family="sans-serif" font-size="14" lengthAdjust="spacing" textLength="59" x="629.5" y="301.5352">WorkerC</text><line style="stroke:#181818;stroke-width:0.5;" x1="627.5" x2="690.5" y1="309.4883" y2="309.4883"/><line style="stroke:#181818;stroke-width:0.5;" x1="627.5" x2="690.5" y1="317.4883" y2="317.4883"/></g><!--MD5=[97e10583a5b6eecbacd03c3a222cc54d]
class ContributorA--><g id="elem_ContributorA"><rect codeLine="48" fill="#F1F1F1" height="42.4883" id="ContributorA" rx="2.5" ry="2.5" style="stroke:#181818;stroke-width:0.5;" width="97" x="26.5" y="283"/><text fill="#000000" font-family="sans-serif" font-size="14" lengthAdjust="spacing" textLength="91" x="29.5" y="301.5352">ContributorA</text><line style="stroke:#181818;stroke-width:0.5;" x1="27.5" x2="122.5" y1="309.4883" y2="309.4883"/><line style="stroke:#181818;stroke-width:0.5;" x1="27.5" x2="122.5" y1="317.4883" y2="317.4883"/></g><!--MD5=[aaa3c39fd46c67a53a174036bfaf6cc1]
class ContributorB--><g id="elem_ContributorB"><rect codeLine="52" fill="#F1F1F1" height="42.4883" id="ContributorB" rx="2.5" ry="2.5" style="stroke:#181818;stroke-width:0.5;" width="95" x="180.5" y="283"/><text fill="#000000" font-family="sans-serif" font-size="14" lengthAdjust="spacing" textLength="89" x="183.5" y="301.5352">ContributorB</text><line style="stroke:#181818;stroke-width:0.5;" x1="181.5" x2="274.5" y1="309.4883" y2="309.4883"/><line style="stroke:#181818;stroke-width:0.5;" x1="181.5" x2="274.5" y1="317.4883" y2="317.4883"/></g><!--MD5=[3f3a73c0785171a2460595c3338f56ef]
class ContributorC--><g id="elem_ContributorC"><rect codeLine="56" fill="#F1F1F1" height="42.4883" id="ContributorC" rx="2.5" ry="2.5" style="stroke:#181818;stroke-width:0.5;" width="97" x="26.5" y="400"/><text fill="#000000" font-family="sans-serif" font-size="14" lengthAdjust="spacing" textLength="91" x="29.5" y="418.5352">ContributorC</text><line style="stroke:#181818;stroke-width:0.5;" x1="27.5" x2="122.5" y1="426.4883" y2="426.4883"/><line style="stroke:#181818;stroke-width:0.5;" x1="27.5" x2="122.5" y1="434.4883" y2="434.4883"/></g><!--MD5=[1079381a7d3e61c76b143ee48d5d3223]
link Developer to WorkerA--><g id="link_Developer_WorkerA"><path codeLine="42" d="M515.65,125 C530.87,125 546.09,125 561.31,125 " fill="none" id="Developer-WorkerA" style="stroke:#181818;stroke-width:1.0;"/><polygon fill="#181818" points="566.47,125,557.47,121,561.47,125,557.47,129,566.47,125" style="stroke:#181818;stroke-width:1.0;"/><polygon fill="#181818" points="510.4,125,519.4,129,515.4,125,519.4,121,510.4,125" style="stroke:#181818;stroke-width:1.0;"/></g><!--MD5=[71e12eb0f882309a836c3b723380e195]
link WorkerA to WorkerB--><g id="link_WorkerA_WorkerB"><path codeLine="43" d="M636.92,125 C652.29,125 667.66,125 683.02,125 " fill="none" id="WorkerA-WorkerB" style="stroke:#181818;stroke-width:1.0;"/><polygon fill="#181818" points="688.24,125,679.24,121,683.24,125,679.24,129,688.24,125" style="stroke:#181818;stroke-width:1.0;"/><polygon fill="#181818" points="631.61,125,640.61,129,636.61,125,640.61,121,631.61,125" style="stroke:#181818;stroke-width:1.0;"/></g><!--MD5=[8577f872bbcbbd8241a0a47692370ca6]
link WorkerA to WorkerC--><g id="link_WorkerA_WorkerC"><path codeLine="44" d="M607.58,151.32 C619.04,185.13 639.21,244.63 650.59,278.18 " fill="none" id="WorkerA-WorkerC" style="stroke:#181818;stroke-width:1.0;"/><polygon fill="#181818" points="652.2,282.93,653.1133,273.1236,650.6017,278.1923,645.533,275.6808,652.2,282.93" style="stroke:#181818;stroke-width:1.0;"/><polygon fill="#181818" points="605.88,146.3,604.9667,156.1064,607.4783,151.0377,612.547,153.5492,605.88,146.3" style="stroke:#181818;stroke-width:1.0;"/></g><!--MD5=[41c8cec992567b6029fbfa1c5fe05c8f]
link WorkerB to WorkerC--><g id="link_WorkerB_WorkerC"><path codeLine="45" d="M711.27,151.32 C699.62,185.13 679.12,244.63 667.55,278.18 " fill="none" id="WorkerB-WorkerC" style="stroke:#181818;stroke-width:1.0;"/><polygon fill="#181818" points="665.92,282.93,672.6327,275.7231,667.5482,278.2025,665.0688,273.118,665.92,282.93" style="stroke:#181818;stroke-width:1.0;"/><polygon fill="#181818" points="713,146.3,706.2873,153.5069,711.3718,151.0275,713.8512,156.112,713,146.3" style="stroke:#181818;stroke-width:1.0;"/></g><!--MD5=[5a31bc3e53816b0e7c5a2ff95bcb6d2b]
link Creator to ContributorA--><g id="link_Creator_ContributorA"><path codeLine="59" d="M108.69,188.31 C99.65,219.08 89.25,254.49 82.42,277.73 " fill="none" id="Creator-ContributorA" style="stroke:#181818;stroke-width:1.0;"/><polygon fill="#181818" points="80.94,282.79,87.3,275.27,82.34,277.99,79.62,273.03,80.94,282.79" style="stroke:#181818;stroke-width:1.0;"/><polygon fill="#181818" points="110.12,183.47,103.7394,190.9725,108.7069,188.2661,111.4132,193.2336,110.12,183.47" style="stroke:#181818;stroke-width:1.0;"/></g><!--MD5=[b0a8dd4d21ab5910ccad621762789fef]
link Creator to ContributorB--><g id="link_Creator_ContributorB"><path codeLine="60" d="M162.32,187.9 C180.08,219.02 200.59,254.97 213.9,278.3 " fill="none" id="Creator-ContributorB" style="stroke:#181818;stroke-width:1.0;"/><polygon fill="#181818" points="216.47,282.79,215.4951,272.9895,213.997,278.4444,208.5421,276.9463,216.47,282.79" style="stroke:#181818;stroke-width:1.0;"/><polygon fill="#181818" points="159.79,183.47,160.7892,193.268,162.2738,187.8095,167.7323,189.294,159.79,183.47" style="stroke:#181818;stroke-width:1.0;"/></g><!--MD5=[371121959cb6f2946448ce607e151223]
link ContributorA to ContributorC--><g id="link_ContributorA_ContributorC"><path codeLine="61" d="M75,330.15 C75,349.26 75,375.43 75,394.6 " fill="none" id="ContributorA-ContributorC" style="stroke:#181818;stroke-width:1.0;"/><polygon fill="#181818" points="75,399.81,79,390.81,75,394.81,71,390.81,75,399.81" style="stroke:#181818;stroke-width:1.0;"/><polygon fill="#181818" points="75,325.03,71,334.03,75,330.03,79,334.03,75,325.03" style="stroke:#181818;stroke-width:1.0;"/></g><!--MD5=[a08a57a25a64debe8081c42010243434]
link ContributorB to ContributorC--><g id="link_ContributorB_ContributorC"><path codeLine="62" d="M197.32,328.06 C170.8,347.99 132.65,376.67 106.03,396.68 " fill="none" id="ContributorB-ContributorC" style="stroke:#181818;stroke-width:1.0;"/><polygon fill="#181818" points="101.86,399.81,111.455,397.5881,105.8531,396.8009,106.6404,391.1991,101.86,399.81" style="stroke:#181818;stroke-width:1.0;"/><polygon fill="#181818" points="201.35,325.03,191.7538,327.2465,197.3552,328.0369,196.5648,333.6382,201.35,325.03" style="stroke:#181818;stroke-width:1.0;"/></g><!--MD5=[26cc6aacab2b10c4b8610c7bef519f1f]
@startuml

hide empty description

hide class circle

package Me <<Frame>> {

    class Developer {
        +uid: julian@farm.com
        +uid: walkingice@community.org
        - -
        -primary key pair
        - -
        ~subkey 1(sign)
        ~subkey 2(encrypt)
        ~subkey 3(encrypt)
        ~subkey 4(encrypt)
    }

    class Creator {
        +uid: fatuber@give.me.food
        - -
        -primary key pair
        - -
        ~subkey 1(encrypt)
        ~subkey 2(sign)
    }
}

package CoworkerA <<Frame>> {
    class WorkerA {}
}

package CoworkerB <<Frame>> {
    class WorkerB {}
}

package CoworkerC <<Frame>> {
    class WorkerC {}
}

Developer <-right-> WorkerA
WorkerA <-right-> WorkerB
WorkerA <- -> WorkerC
WorkerB <- -> WorkerC

package FanA <<Frame>> {
    class ContributorA {}
}

package FanB <<Frame>> {
    class ContributorB {}
}

package FanC <<Frame>> {
    class ContributorC {}
}

Creator <-down-> ContributorA
Creator <-down-> ContributorB
ContributorA <- -> ContributorC
ContributorB <- -> ContributorC


@enduml

PlantUML version 1.2022.5(Sat Apr 30 19:55:52 JST 2022)
(GPL source distribution)
Java Runtime: OpenJDK Runtime Environment
JVM: OpenJDK 64-Bit Server VM
Default Encoding: UTF-8
Language: en
Country: JP
--></g></svg>
