<?xml version="1.0" encoding="UTF-8" standalone="no"?><svg xmlns="http://www.w3.org/2000/svg" xmlns:xlink="http://www.w3.org/1999/xlink" contentScriptType="application/ecmascript" contentStyleType="text/css" height="306px" preserveAspectRatio="none" style="width:467px;height:306px;background:#FFFFFF;" version="1.1" viewBox="0 0 467 306" width="467px" zoomAndPan="magnify"><defs><filter height="300%" id="f8jh9nsva1x1b" width="300%" x="-1" y="-1"><feGaussianBlur result="blurOut" stdDeviation="2.0"/><feColorMatrix in="blurOut" result="blurOut2" type="matrix" values="0 0 0 0 0 0 0 0 0 0 0 0 0 0 0 0 0 0 .4 0"/><feOffset dx="4.0" dy="4.0" in="blurOut2" result="blurOut3"/><feBlend in="SourceGraphic" in2="blurOut3" mode="normal"/></filter></defs><g><text fill="#000000" font-family="sans-serif" font-size="18" lengthAdjust="spacing" textLength="130" x="162.25" y="17.4023">Activity Vocabulary</text><!--MD5=[44201db48fb57df1a9c7f5b6b15426b0]
class Actor--><rect fill="#FEFECE" filter="url(#f8jh9nsva1x1b)" height="48" id="Actor" style="stroke:#A80036;stroke-width:1.5;" width="62" x="269" y="136.1992"/><ellipse cx="284" cy="152.1992" fill="#ADD1B2" rx="11" ry="11" style="stroke:#A80036;stroke-width:1.0;"/><path d="M286.4731,158.3423 Q285.8921,158.6411 285.2529,158.7905 Q284.6138,158.9399 283.9082,158.9399 Q281.4014,158.9399 280.0815,157.2881 Q278.7617,155.6362 278.7617,152.5151 Q278.7617,149.3857 280.0815,147.7339 Q281.4014,146.082 283.9082,146.082 Q284.6138,146.082 285.2612,146.2314 Q285.9087,146.3809 286.4731,146.6797 L286.4731,149.4023 Q285.8423,148.8213 285.2488,148.5515 Q284.6553,148.2817 284.0244,148.2817 Q282.6797,148.2817 281.9949,149.3484 Q281.3101,150.415 281.3101,152.5151 Q281.3101,154.6069 281.9949,155.6736 Q282.6797,156.7402 284.0244,156.7402 Q284.6553,156.7402 285.2488,156.4705 Q285.8423,156.2007 286.4731,155.6196 Z " fill="#000000"/><text fill="#000000" font-family="sans-serif" font-size="12" lengthAdjust="spacing" textLength="30" x="298" y="156.7344">Actor</text><line style="stroke:#A80036;stroke-width:1.5;" x1="270" x2="330" y1="168.1992" y2="168.1992"/><line style="stroke:#A80036;stroke-width:1.5;" x1="270" x2="330" y1="176.1992" y2="176.1992"/><!--MD5=[aa7f586532e18719e6cefa70fc650583]
class Object--><rect fill="#FEFECE" filter="url(#f8jh9nsva1x1b)" height="48" id="Object" style="stroke:#A80036;stroke-width:1.5;" width="70" x="265" y="28.1992"/><ellipse cx="280" cy="44.1992" fill="#ADD1B2" rx="11" ry="11" style="stroke:#A80036;stroke-width:1.0;"/><path d="M282.4731,50.3423 Q281.8921,50.6411 281.2529,50.7905 Q280.6138,50.9399 279.9082,50.9399 Q277.4014,50.9399 276.0815,49.2881 Q274.7617,47.6362 274.7617,44.5151 Q274.7617,41.3857 276.0815,39.7339 Q277.4014,38.082 279.9082,38.082 Q280.6138,38.082 281.2612,38.2314 Q281.9087,38.3809 282.4731,38.6797 L282.4731,41.4023 Q281.8423,40.8213 281.2488,40.5515 Q280.6553,40.2817 280.0244,40.2817 Q278.6797,40.2817 277.9949,41.3484 Q277.3101,42.415 277.3101,44.5151 Q277.3101,46.6069 277.9949,47.6736 Q278.6797,48.7402 280.0244,48.7402 Q280.6553,48.7402 281.2488,48.4705 Q281.8423,48.2007 282.4731,47.6196 Z " fill="#000000"/><text fill="#000000" font-family="sans-serif" font-size="12" lengthAdjust="spacing" textLength="38" x="294" y="48.7344">Object</text><line style="stroke:#A80036;stroke-width:1.5;" x1="266" x2="334" y1="60.1992" y2="60.1992"/><line style="stroke:#A80036;stroke-width:1.5;" x1="266" x2="334" y1="68.1992" y2="68.1992"/><!--MD5=[c160724f8e3bb89ca8141a12554ac2e3]
class Collection--><rect fill="#FEFECE" filter="url(#f8jh9nsva1x1b)" height="48" id="Collection" style="stroke:#A80036;stroke-width:1.5;" width="87" x="366.5" y="136.1992"/><ellipse cx="381.5" cy="152.1992" fill="#ADD1B2" rx="11" ry="11" style="stroke:#A80036;stroke-width:1.0;"/><path d="M383.9731,158.3423 Q383.3921,158.6411 382.7529,158.7905 Q382.1138,158.9399 381.4082,158.9399 Q378.9014,158.9399 377.5815,157.2881 Q376.2617,155.6362 376.2617,152.5151 Q376.2617,149.3857 377.5815,147.7339 Q378.9014,146.082 381.4082,146.082 Q382.1138,146.082 382.7612,146.2314 Q383.4087,146.3809 383.9731,146.6797 L383.9731,149.4023 Q383.3423,148.8213 382.7488,148.5515 Q382.1553,148.2817 381.5244,148.2817 Q380.1797,148.2817 379.4949,149.3484 Q378.8101,150.415 378.8101,152.5151 Q378.8101,154.6069 379.4949,155.6736 Q380.1797,156.7402 381.5244,156.7402 Q382.1553,156.7402 382.7488,156.4705 Q383.3423,156.2007 383.9731,155.6196 Z " fill="#000000"/><text fill="#000000" font-family="sans-serif" font-size="12" lengthAdjust="spacing" textLength="55" x="395.5" y="156.7344">Collection</text><line style="stroke:#A80036;stroke-width:1.5;" x1="367.5" x2="452.5" y1="168.1992" y2="168.1992"/><line style="stroke:#A80036;stroke-width:1.5;" x1="367.5" x2="452.5" y1="176.1992" y2="176.1992"/><!--MD5=[c881b25adf3665c6568c9693d41a70f3]
class Activity--><rect fill="#FEFECE" filter="url(#f8jh9nsva1x1b)" height="48" id="Activity" style="stroke:#A80036;stroke-width:1.5;" width="72" x="162" y="136.1992"/><ellipse cx="177" cy="152.1992" fill="#ADD1B2" rx="11" ry="11" style="stroke:#A80036;stroke-width:1.0;"/><path d="M179.4731,158.3423 Q178.8921,158.6411 178.2529,158.7905 Q177.6138,158.9399 176.9082,158.9399 Q174.4014,158.9399 173.0815,157.2881 Q171.7617,155.6362 171.7617,152.5151 Q171.7617,149.3857 173.0815,147.7339 Q174.4014,146.082 176.9082,146.082 Q177.6138,146.082 178.2612,146.2314 Q178.9087,146.3809 179.4731,146.6797 L179.4731,149.4023 Q178.8423,148.8213 178.2488,148.5515 Q177.6553,148.2817 177.0244,148.2817 Q175.6797,148.2817 174.9949,149.3484 Q174.3101,150.415 174.3101,152.5151 Q174.3101,154.6069 174.9949,155.6736 Q175.6797,156.7402 177.0244,156.7402 Q177.6553,156.7402 178.2488,156.4705 Q178.8423,156.2007 179.4731,155.6196 Z " fill="#000000"/><text fill="#000000" font-family="sans-serif" font-size="12" lengthAdjust="spacing" textLength="40" x="191" y="156.7344">Activity</text><line style="stroke:#A80036;stroke-width:1.5;" x1="163" x2="233" y1="168.1992" y2="168.1992"/><line style="stroke:#A80036;stroke-width:1.5;" x1="163" x2="233" y1="176.1992" y2="176.1992"/><!--MD5=[af7d543b6251b12f84b8a2da20750b1a]
class Create--><rect fill="#FEFECE" filter="url(#f8jh9nsva1x1b)" height="48" id="Create" style="stroke:#A80036;stroke-width:1.5;" width="70" x="7" y="244.1992"/><ellipse cx="22" cy="260.1992" fill="#ADD1B2" rx="11" ry="11" style="stroke:#A80036;stroke-width:1.0;"/><path d="M24.4731,266.3423 Q23.8921,266.6411 23.2529,266.7905 Q22.6138,266.9399 21.9082,266.9399 Q19.4014,266.9399 18.0815,265.2881 Q16.7617,263.6362 16.7617,260.5151 Q16.7617,257.3857 18.0815,255.7339 Q19.4014,254.082 21.9082,254.082 Q22.6138,254.082 23.2612,254.2314 Q23.9087,254.3809 24.4731,254.6797 L24.4731,257.4023 Q23.8423,256.8213 23.2488,256.5515 Q22.6553,256.2817 22.0244,256.2817 Q20.6797,256.2817 19.9949,257.3484 Q19.3101,258.415 19.3101,260.5151 Q19.3101,262.6069 19.9949,263.6736 Q20.6797,264.7402 22.0244,264.7402 Q22.6553,264.7402 23.2488,264.4705 Q23.8423,264.2007 24.4731,263.6196 Z " fill="#000000"/><text fill="#000000" font-family="sans-serif" font-size="12" lengthAdjust="spacing" textLength="38" x="36" y="264.7344">Create</text><line style="stroke:#A80036;stroke-width:1.5;" x1="8" x2="76" y1="276.1992" y2="276.1992"/><line style="stroke:#A80036;stroke-width:1.5;" x1="8" x2="76" y1="284.1992" y2="284.1992"/><!--MD5=[018b9b704ebc34102e48f367e33ddcbe]
class Follow--><rect fill="#FEFECE" filter="url(#f8jh9nsva1x1b)" height="48" id="Follow" style="stroke:#A80036;stroke-width:1.5;" width="67" x="112.5" y="244.1992"/><ellipse cx="127.5" cy="260.1992" fill="#ADD1B2" rx="11" ry="11" style="stroke:#A80036;stroke-width:1.0;"/><path d="M129.9731,266.3423 Q129.3921,266.6411 128.7529,266.7905 Q128.1138,266.9399 127.4082,266.9399 Q124.9014,266.9399 123.5815,265.2881 Q122.2617,263.6362 122.2617,260.5151 Q122.2617,257.3857 123.5815,255.7339 Q124.9014,254.082 127.4082,254.082 Q128.1138,254.082 128.7612,254.2314 Q129.4087,254.3809 129.9731,254.6797 L129.9731,257.4023 Q129.3423,256.8213 128.7488,256.5515 Q128.1553,256.2817 127.5244,256.2817 Q126.1797,256.2817 125.4949,257.3484 Q124.8101,258.415 124.8101,260.5151 Q124.8101,262.6069 125.4949,263.6736 Q126.1797,264.7402 127.5244,264.7402 Q128.1553,264.7402 128.7488,264.4705 Q129.3423,264.2007 129.9731,263.6196 Z " fill="#000000"/><text fill="#000000" font-family="sans-serif" font-size="12" lengthAdjust="spacing" textLength="35" x="141.5" y="264.7344">Follow</text><line style="stroke:#A80036;stroke-width:1.5;" x1="113.5" x2="178.5" y1="276.1992" y2="276.1992"/><line style="stroke:#A80036;stroke-width:1.5;" x1="113.5" x2="178.5" y1="284.1992" y2="284.1992"/><!--MD5=[8de88822fbff711e961d05a6151e7362]
class Accept--><rect fill="#FEFECE" filter="url(#f8jh9nsva1x1b)" height="48" id="Accept" style="stroke:#A80036;stroke-width:1.5;" width="71" x="214.5" y="244.1992"/><ellipse cx="229.5" cy="260.1992" fill="#ADD1B2" rx="11" ry="11" style="stroke:#A80036;stroke-width:1.0;"/><path d="M231.9731,266.3423 Q231.3921,266.6411 230.7529,266.7905 Q230.1138,266.9399 229.4082,266.9399 Q226.9014,266.9399 225.5815,265.2881 Q224.2617,263.6362 224.2617,260.5151 Q224.2617,257.3857 225.5815,255.7339 Q226.9014,254.082 229.4082,254.082 Q230.1138,254.082 230.7612,254.2314 Q231.4087,254.3809 231.9731,254.6797 L231.9731,257.4023 Q231.3423,256.8213 230.7488,256.5515 Q230.1553,256.2817 229.5244,256.2817 Q228.1797,256.2817 227.4949,257.3484 Q226.8101,258.415 226.8101,260.5151 Q226.8101,262.6069 227.4949,263.6736 Q228.1797,264.7402 229.5244,264.7402 Q230.1553,264.7402 230.7488,264.4705 Q231.3423,264.2007 231.9731,263.6196 Z " fill="#000000"/><text fill="#000000" font-family="sans-serif" font-size="12" lengthAdjust="spacing" textLength="39" x="243.5" y="264.7344">Accept</text><line style="stroke:#A80036;stroke-width:1.5;" x1="215.5" x2="284.5" y1="276.1992" y2="276.1992"/><line style="stroke:#A80036;stroke-width:1.5;" x1="215.5" x2="284.5" y1="284.1992" y2="284.1992"/><!--MD5=[378e3e2ca7e24a99f4479cd893fbde36]
class Like--><rect fill="#FEFECE" filter="url(#f8jh9nsva1x1b)" height="48" id="Like" style="stroke:#A80036;stroke-width:1.5;" width="55" x="320.5" y="244.1992"/><ellipse cx="335.5" cy="260.1992" fill="#ADD1B2" rx="11" ry="11" style="stroke:#A80036;stroke-width:1.0;"/><path d="M337.9731,266.3423 Q337.3921,266.6411 336.7529,266.7905 Q336.1138,266.9399 335.4082,266.9399 Q332.9014,266.9399 331.5815,265.2881 Q330.2617,263.6362 330.2617,260.5151 Q330.2617,257.3857 331.5815,255.7339 Q332.9014,254.082 335.4082,254.082 Q336.1138,254.082 336.7612,254.2314 Q337.4087,254.3809 337.9731,254.6797 L337.9731,257.4023 Q337.3423,256.8213 336.7488,256.5515 Q336.1553,256.2817 335.5244,256.2817 Q334.1797,256.2817 333.4949,257.3484 Q332.8101,258.415 332.8101,260.5151 Q332.8101,262.6069 333.4949,263.6736 Q334.1797,264.7402 335.5244,264.7402 Q336.1553,264.7402 336.7488,264.4705 Q337.3423,264.2007 337.9731,263.6196 Z " fill="#000000"/><text fill="#000000" font-family="sans-serif" font-size="12" lengthAdjust="spacing" textLength="23" x="349.5" y="264.7344">Like</text><line style="stroke:#A80036;stroke-width:1.5;" x1="321.5" x2="374.5" y1="276.1992" y2="276.1992"/><line style="stroke:#A80036;stroke-width:1.5;" x1="321.5" x2="374.5" y1="284.1992" y2="284.1992"/><!--MD5=[8b0e73ffa95dae43882f158bd14c8959]
class Mention--><rect fill="#FEFECE" filter="url(#f8jh9nsva1x1b)" height="48" id="Mention" style="stroke:#A80036;stroke-width:1.5;" width="77" x="49.5" y="136.1992"/><ellipse cx="64.5" cy="152.1992" fill="#ADD1B2" rx="11" ry="11" style="stroke:#A80036;stroke-width:1.0;"/><path d="M66.9731,158.3423 Q66.3921,158.6411 65.7529,158.7905 Q65.1138,158.9399 64.4082,158.9399 Q61.9014,158.9399 60.5815,157.2881 Q59.2617,155.6362 59.2617,152.5151 Q59.2617,149.3857 60.5815,147.7339 Q61.9014,146.082 64.4082,146.082 Q65.1138,146.082 65.7612,146.2314 Q66.4087,146.3809 66.9731,146.6797 L66.9731,149.4023 Q66.3423,148.8213 65.7488,148.5515 Q65.1553,148.2817 64.5244,148.2817 Q63.1797,148.2817 62.4949,149.3484 Q61.8101,150.415 61.8101,152.5151 Q61.8101,154.6069 62.4949,155.6736 Q63.1797,156.7402 64.5244,156.7402 Q65.1553,156.7402 65.7488,156.4705 Q66.3423,156.2007 66.9731,155.6196 Z " fill="#000000"/><text fill="#000000" font-family="sans-serif" font-size="12" lengthAdjust="spacing" textLength="45" x="78.5" y="156.7344">Mention</text><line style="stroke:#A80036;stroke-width:1.5;" x1="50.5" x2="125.5" y1="168.1992" y2="168.1992"/><line style="stroke:#A80036;stroke-width:1.5;" x1="50.5" x2="125.5" y1="176.1992" y2="176.1992"/><!--MD5=[d189332174d53557e6def82bbd003869]
class Link--><rect fill="#FEFECE" filter="url(#f8jh9nsva1x1b)" height="48" id="Link" style="stroke:#A80036;stroke-width:1.5;" width="55" x="60.5" y="28.1992"/><ellipse cx="75.5" cy="44.1992" fill="#ADD1B2" rx="11" ry="11" style="stroke:#A80036;stroke-width:1.0;"/><path d="M77.9731,50.3423 Q77.3921,50.6411 76.7529,50.7905 Q76.1138,50.9399 75.4082,50.9399 Q72.9014,50.9399 71.5815,49.2881 Q70.2617,47.6362 70.2617,44.5151 Q70.2617,41.3857 71.5815,39.7339 Q72.9014,38.082 75.4082,38.082 Q76.1138,38.082 76.7612,38.2314 Q77.4087,38.3809 77.9731,38.6797 L77.9731,41.4023 Q77.3423,40.8213 76.7488,40.5515 Q76.1553,40.2817 75.5244,40.2817 Q74.1797,40.2817 73.4949,41.3484 Q72.8101,42.415 72.8101,44.5151 Q72.8101,46.6069 73.4949,47.6736 Q74.1797,48.7402 75.5244,48.7402 Q76.1553,48.7402 76.7488,48.4705 Q77.3423,48.2007 77.9731,47.6196 Z " fill="#000000"/><text fill="#000000" font-family="sans-serif" font-size="12" lengthAdjust="spacing" textLength="23" x="89.5" y="48.7344">Link</text><line style="stroke:#A80036;stroke-width:1.5;" x1="61.5" x2="114.5" y1="60.1992" y2="60.1992"/><line style="stroke:#A80036;stroke-width:1.5;" x1="61.5" x2="114.5" y1="68.1992" y2="68.1992"/><!--MD5=[90df85019fa181522de222a16c6c3cf4]
link Object to Actor--><path codeLine="4" d="M300,76.1992 C300,93.8592 300,118.1392 300,135.8792 " fill="none" id="Object-Actor" style="stroke:#A80036;stroke-width:1.0;"/><!--MD5=[1867a23556476f10c9ddb4d481510dd9]
link Object to Collection--><path codeLine="5" d="M323.87,76.1992 C342.19,93.8592 367.39,118.1392 385.8,135.8792 " fill="none" id="Object-Collection" style="stroke:#A80036;stroke-width:1.0;"/><!--MD5=[b05969732ce6ee11125402c3f8beec4b]
link Object to Activity--><path codeLine="6" d="M277.87,76.1992 C260.88,93.8592 237.51,118.1392 220.44,135.8792 " fill="none" id="Object-Activity" style="stroke:#A80036;stroke-width:1.0;"/><!--MD5=[46133907fed0e266f08b042625a12e8b]
link Activity to Create--><path codeLine="8" d="M164.15,184.1992 C138.07,201.9192 102.18,226.3092 76.05,244.0592 " fill="none" id="Activity-Create" style="stroke:#A80036;stroke-width:1.0;"/><!--MD5=[fe3a68b12a8d3c3b282b4c5978632e4d]
link Activity to Follow--><path codeLine="9" d="M186.72,184.1992 C178.05,201.8592 166.14,226.1392 157.44,243.8792 " fill="none" id="Activity-Follow" style="stroke:#A80036;stroke-width:1.0;"/><!--MD5=[385f492c77f46731010ed07b9326af8f]
link Activity to Accept--><path codeLine="10" d="M209.28,184.1992 C217.95,201.8592 229.86,226.1392 238.56,243.8792 " fill="none" id="Activity-Accept" style="stroke:#A80036;stroke-width:1.0;"/><!--MD5=[cd9bf3948fe19c20d6adcc17b2915825]
link Activity to Like--><path codeLine="11" d="M230.55,184.1992 C257.26,203.0792 294.68,229.5192 320.05,247.4492 " fill="none" id="Activity-Like" style="stroke:#A80036;stroke-width:1.0;"/><!--MD5=[00bb7ac82b154ee1d111135200a59362]
link Link to Mention--><path codeLine="14" d="M88,76.1992 C88,93.8592 88,118.1392 88,135.8792 " fill="none" id="Link-Mention" style="stroke:#A80036;stroke-width:1.0;"/><!--MD5=[82c445466c30db665f93eca3061be303]
@startuml

title Activity Stream

Actor -up-Object
Collection -up-Object
Activity -up-Object

Create -up- Activity
Follow -up- Activity
Accept -up- Activity
Like -up- Activity
Remove -up- Activity

Mention -up- Link

@enduml

PlantUML version 1.2021.7(Sun May 23 21:40:07 JST 2021)
(GPL source distribution)
Java Runtime: OpenJDK Runtime Environment
JVM: OpenJDK 64-Bit Server VM
Default Encoding: UTF-8
Language: en
Country: JP
--></g></svg>
