<?xml version="1.0" encoding="UTF-8" standalone="no"?><svg xmlns="http://www.w3.org/2000/svg" xmlns:xlink="http://www.w3.org/1999/xlink" contentStyleType="text/css" height="888px" preserveAspectRatio="none" style="width:462px;height:888px;background:#FFFFFF;" version="1.1" viewBox="0 0 462 888" width="462px" zoomAndPan="magnify"><defs/><g><!--cluster F1--><g id="cluster_F1"><rect fill="none" height="143" rx="2.5" ry="2.5" style="stroke:#181818;stroke-width:1.0;" width="393" x="12" y="7"/><path d="M224,7 L224,16.4883 L214,26.4883 L12,26.4883 " fill="none" style="stroke:#181818;stroke-width:1.0;"/><text fill="#000000" font-family="sans-serif" font-size="14" font-weight="bold" lengthAdjust="spacing" textLength="202" x="15" y="21.5352">用官方範例連接 Github OAuth</text></g><!--cluster F2--><g id="cluster_F2"><rect fill="none" height="143" rx="2.5" ry="2.5" style="stroke:#181818;stroke-width:1.0;" width="395" x="12" y="190"/><path d="M226,190 L226,199.4883 L216,209.4883 L12,209.4883 " fill="none" style="stroke:#181818;stroke-width:1.0;"/><text fill="#000000" font-family="sans-serif" font-size="14" font-weight="bold" lengthAdjust="spacing" textLength="204" x="15" y="204.5352">用官方範例連接 Google OAuth</text></g><!--cluster F3--><g id="cluster_F3"><rect fill="none" height="143" rx="2.5" ry="2.5" style="stroke:#181818;stroke-width:1.0;" width="406" x="12" y="373"/><path d="M412,373 L412,382.4883 L402,392.4883 L12,392.4883 " fill="none" style="stroke:#181818;stroke-width:1.0;"/><text fill="#000000" font-family="sans-serif" font-size="14" font-weight="bold" lengthAdjust="spacing" textLength="390" x="15" y="387.5352">用官方範例連接 Google OAuth, 但是手動設定 Registration</text></g><!--cluster F4--><g id="cluster_F4"><rect fill="none" height="143" rx="2.5" ry="2.5" style="stroke:#181818;stroke-width:1.0;" width="444" x="12" y="556"/><path d="M450,556 L450,565.4883 L440,575.4883 L12,575.4883 " fill="none" style="stroke:#181818;stroke-width:1.0;"/><text fill="#000000" font-family="sans-serif" font-size="14" font-weight="bold" lengthAdjust="spacing" textLength="428" x="15" y="570.5352">用自己的 Spring App，套用官方範例的做法，連接 Google OAuth</text></g><!--cluster F5--><g id="cluster_F5"><rect fill="none" height="143" rx="2.5" ry="2.5" style="stroke:#181818;stroke-width:1.0;" width="417" x="12" y="739"/><path d="M275,739 L275,748.4883 L265,758.4883 L12,758.4883 " fill="none" style="stroke:#181818;stroke-width:1.0;"/><text fill="#000000" font-family="sans-serif" font-size="14" font-weight="bold" lengthAdjust="spacing" textLength="253" x="15" y="753.5352">自己的 Spring App 連接 Mock OAuth</text></g><!--entity User1--><g id="elem_User1"><ellipse cx="71" cy="58.5" fill="#F1F1F1" rx="8" ry="8" style="stroke:#181818;stroke-width:0.5;"/><path d="M71,66.5 L71,93.5 M58,74.5 L84,74.5 M71,93.5 L58,108.5 M71,93.5 L84,108.5 " fill="none" style="stroke:#181818;stroke-width:0.5;"/><text fill="#000000" font-family="sans-serif" font-size="14" lengthAdjust="spacing" textLength="31" x="55.5" y="123.5352">User</text></g><!--entity Client1--><g id="elem_Client1"><rect fill="#F1F1F1" height="46.4883" rx="2.5" ry="2.5" style="stroke:#181818;stroke-width:0.5;" width="90" x="122" y="65"/><rect fill="#F1F1F1" height="10" style="stroke:#181818;stroke-width:0.5;" width="15" x="192" y="70"/><rect fill="#F1F1F1" height="2" style="stroke:#181818;stroke-width:0.5;" width="4" x="190" y="72"/><rect fill="#F1F1F1" height="2" style="stroke:#181818;stroke-width:0.5;" width="4" x="190" y="76"/><text fill="#000000" font-family="sans-serif" font-size="14" lengthAdjust="spacing" textLength="50" x="137" y="98.5352">Sample</text></g><!--entity AS1--><g id="elem_AS1"><rect fill="#F1F1F1" height="46.4883" rx="2.5" ry="2.5" style="stroke:#181818;stroke-width:0.5;" width="133" x="247.5" y="65"/><rect fill="#F1F1F1" height="10" style="stroke:#181818;stroke-width:0.5;" width="15" x="360.5" y="70"/><rect fill="#F1F1F1" height="2" style="stroke:#181818;stroke-width:0.5;" width="4" x="358.5" y="72"/><rect fill="#F1F1F1" height="2" style="stroke:#181818;stroke-width:0.5;" width="4" x="358.5" y="76"/><text fill="#000000" font-family="sans-serif" font-size="14" lengthAdjust="spacing" textLength="93" x="262.5" y="98.5352">Github Server</text></g><!--entity User2--><g id="elem_User2"><ellipse cx="71" cy="241.5" fill="#F1F1F1" rx="8" ry="8" style="stroke:#181818;stroke-width:0.5;"/><path d="M71,249.5 L71,276.5 M58,257.5 L84,257.5 M71,276.5 L58,291.5 M71,276.5 L84,291.5 " fill="none" style="stroke:#181818;stroke-width:0.5;"/><text fill="#000000" font-family="sans-serif" font-size="14" lengthAdjust="spacing" textLength="31" x="55.5" y="306.5352">User</text></g><!--entity Client2--><g id="elem_Client2"><rect fill="#F1F1F1" height="46.4883" rx="2.5" ry="2.5" style="stroke:#181818;stroke-width:0.5;" width="90" x="122" y="248"/><rect fill="#F1F1F1" height="10" style="stroke:#181818;stroke-width:0.5;" width="15" x="192" y="253"/><rect fill="#F1F1F1" height="2" style="stroke:#181818;stroke-width:0.5;" width="4" x="190" y="255"/><rect fill="#F1F1F1" height="2" style="stroke:#181818;stroke-width:0.5;" width="4" x="190" y="259"/><text fill="#000000" font-family="sans-serif" font-size="14" lengthAdjust="spacing" textLength="50" x="137" y="281.5352">Sample</text></g><!--entity AS2--><g id="elem_AS2"><rect fill="#00FF00" height="46.4883" rx="2.5" ry="2.5" style="stroke:#181818;stroke-width:0.5;" width="136" x="247" y="248"/><rect fill="#00FF00" height="10" style="stroke:#181818;stroke-width:0.5;" width="15" x="363" y="253"/><rect fill="#00FF00" height="2" style="stroke:#181818;stroke-width:0.5;" width="4" x="361" y="255"/><rect fill="#00FF00" height="2" style="stroke:#181818;stroke-width:0.5;" width="4" x="361" y="259"/><text fill="#000000" font-family="sans-serif" font-size="14" lengthAdjust="spacing" textLength="96" x="262" y="281.5352">Google Server</text></g><!--entity User3--><g id="elem_User3"><ellipse cx="76" cy="424.5" fill="#F1F1F1" rx="8" ry="8" style="stroke:#181818;stroke-width:0.5;"/><path d="M76,432.5 L76,459.5 M63,440.5 L89,440.5 M76,459.5 L63,474.5 M76,459.5 L89,474.5 " fill="none" style="stroke:#181818;stroke-width:0.5;"/><text fill="#000000" font-family="sans-serif" font-size="14" lengthAdjust="spacing" textLength="31" x="60.5" y="489.5352">User</text></g><!--entity Client3--><g id="elem_Client3"><rect fill="#00FF00" height="46.4883" rx="2.5" ry="2.5" style="stroke:#181818;stroke-width:0.5;" width="90" x="127" y="431"/><rect fill="#00FF00" height="10" style="stroke:#181818;stroke-width:0.5;" width="15" x="197" y="436"/><rect fill="#00FF00" height="2" style="stroke:#181818;stroke-width:0.5;" width="4" x="195" y="438"/><rect fill="#00FF00" height="2" style="stroke:#181818;stroke-width:0.5;" width="4" x="195" y="442"/><text fill="#000000" font-family="sans-serif" font-size="14" lengthAdjust="spacing" textLength="50" x="142" y="464.5352">Sample</text></g><!--entity AS3--><g id="elem_AS3"><rect fill="#F1F1F1" height="46.4883" rx="2.5" ry="2.5" style="stroke:#181818;stroke-width:0.5;" width="136" x="252" y="431"/><rect fill="#F1F1F1" height="10" style="stroke:#181818;stroke-width:0.5;" width="15" x="368" y="436"/><rect fill="#F1F1F1" height="2" style="stroke:#181818;stroke-width:0.5;" width="4" x="366" y="438"/><rect fill="#F1F1F1" height="2" style="stroke:#181818;stroke-width:0.5;" width="4" x="366" y="442"/><text fill="#000000" font-family="sans-serif" font-size="14" lengthAdjust="spacing" textLength="96" x="267" y="464.5352">Google Server</text></g><!--entity User4--><g id="elem_User4"><ellipse cx="78" cy="607.5" fill="#F1F1F1" rx="8" ry="8" style="stroke:#181818;stroke-width:0.5;"/><path d="M78,615.5 L78,642.5 M65,623.5 L91,623.5 M78,642.5 L65,657.5 M78,642.5 L91,657.5 " fill="none" style="stroke:#181818;stroke-width:0.5;"/><text fill="#000000" font-family="sans-serif" font-size="14" lengthAdjust="spacing" textLength="31" x="62.5" y="672.5352">User</text></g><!--entity Client4--><g id="elem_Client4"><rect fill="#00FF00" height="46.4883" rx="2.5" ry="2.5" style="stroke:#181818;stroke-width:0.5;" width="124" x="129" y="614"/><rect fill="#00FF00" height="10" style="stroke:#181818;stroke-width:0.5;" width="15" x="233" y="619"/><rect fill="#00FF00" height="2" style="stroke:#181818;stroke-width:0.5;" width="4" x="231" y="621"/><rect fill="#00FF00" height="2" style="stroke:#181818;stroke-width:0.5;" width="4" x="231" y="625"/><text fill="#000000" font-family="sans-serif" font-size="14" lengthAdjust="spacing" textLength="84" x="144" y="647.5352">My Web App</text></g><!--entity AS4--><g id="elem_AS4"><rect fill="#F1F1F1" height="46.4883" rx="2.5" ry="2.5" style="stroke:#181818;stroke-width:0.5;" width="136" x="288" y="614"/><rect fill="#F1F1F1" height="10" style="stroke:#181818;stroke-width:0.5;" width="15" x="404" y="619"/><rect fill="#F1F1F1" height="2" style="stroke:#181818;stroke-width:0.5;" width="4" x="402" y="621"/><rect fill="#F1F1F1" height="2" style="stroke:#181818;stroke-width:0.5;" width="4" x="402" y="625"/><text fill="#000000" font-family="sans-serif" font-size="14" lengthAdjust="spacing" textLength="96" x="303" y="647.5352">Google Server</text></g><!--entity User5--><g id="elem_User5"><ellipse cx="71" cy="790.5" fill="#F1F1F1" rx="8" ry="8" style="stroke:#181818;stroke-width:0.5;"/><path d="M71,798.5 L71,825.5 M58,806.5 L84,806.5 M71,825.5 L58,840.5 M71,825.5 L84,840.5 " fill="none" style="stroke:#181818;stroke-width:0.5;"/><text fill="#000000" font-family="sans-serif" font-size="14" lengthAdjust="spacing" textLength="31" x="55.5" y="855.5352">User</text></g><!--entity Client5--><g id="elem_Client5"><rect fill="#F1F1F1" height="46.4883" rx="2.5" ry="2.5" style="stroke:#181818;stroke-width:0.5;" width="124" x="122" y="797"/><rect fill="#F1F1F1" height="10" style="stroke:#181818;stroke-width:0.5;" width="15" x="226" y="802"/><rect fill="#F1F1F1" height="2" style="stroke:#181818;stroke-width:0.5;" width="4" x="224" y="804"/><rect fill="#F1F1F1" height="2" style="stroke:#181818;stroke-width:0.5;" width="4" x="224" y="808"/><text fill="#000000" font-family="sans-serif" font-size="14" lengthAdjust="spacing" textLength="84" x="137" y="830.5352">My Web App</text></g><!--entity AS5--><g id="elem_AS5"><rect fill="#00FF00" height="46.4883" rx="2.5" ry="2.5" style="stroke:#181818;stroke-width:0.5;" width="123" x="281.5" y="797"/><rect fill="#00FF00" height="10" style="stroke:#181818;stroke-width:0.5;" width="15" x="384.5" y="802"/><rect fill="#00FF00" height="2" style="stroke:#181818;stroke-width:0.5;" width="4" x="382.5" y="804"/><rect fill="#00FF00" height="2" style="stroke:#181818;stroke-width:0.5;" width="4" x="382.5" y="808"/><text fill="#000000" font-family="sans-serif" font-size="14" lengthAdjust="spacing" textLength="83" x="296.5" y="830.5352">Mock Server</text></g><!--link User1 to Client1--><g id="link_User1_Client1"><path d="M86.75,88 C96.26,88 105.78,88 115.29,88 " fill="none" id="User1-to-Client1" style="stroke:#181818;stroke-width:1.0;"/><polygon fill="#181818" points="120.03,88,111.03,84,115.03,88,111.03,92,120.03,88" style="stroke:#181818;stroke-width:1.0;"/></g><!--link Client1 to AS1--><g id="link_Client1_AS1"><path d="M218.64,88 C226.1,88 233.57,88 241.03,88 " fill="none" id="Client1-AS1" style="stroke:#181818;stroke-width:1.0;"/><polygon fill="#181818" points="213.88,88,222.88,92,218.88,88,222.88,84,213.88,88" style="stroke:#181818;stroke-width:1.0;"/><polygon fill="#181818" points="245.79,88,236.79,84,240.79,88,236.79,92,245.79,88" style="stroke:#181818;stroke-width:1.0;"/></g><!--link User2 to Client2--><g id="link_User2_Client2"><path d="M86.75,271 C96.26,271 105.78,271 115.29,271 " fill="none" id="User2-to-Client2" style="stroke:#181818;stroke-width:1.0;"/><polygon fill="#181818" points="120.03,271,111.03,267,115.03,271,111.03,275,120.03,271" style="stroke:#181818;stroke-width:1.0;"/></g><!--link Client2 to AS2--><g id="link_Client2_AS2"><path d="M218.85,271 C226.14,271 233.43,271 240.73,271 " fill="none" id="Client2-AS2" style="stroke:#181818;stroke-width:1.0;"/><polygon fill="#181818" points="213.9,271,222.9,275,218.9,271,222.9,267,213.9,271" style="stroke:#181818;stroke-width:1.0;"/><polygon fill="#181818" points="245.34,271,236.34,267,240.34,271,236.34,275,245.34,271" style="stroke:#181818;stroke-width:1.0;"/></g><!--link User3 to Client3--><g id="link_User3_Client3"><path d="M91.75,454 C101.26,454 110.78,454 120.29,454 " fill="none" id="User3-to-Client3" style="stroke:#181818;stroke-width:1.0;"/><polygon fill="#181818" points="125.03,454,116.03,450,120.03,454,116.03,458,125.03,454" style="stroke:#181818;stroke-width:1.0;"/></g><!--link Client3 to AS3--><g id="link_Client3_AS3"><path d="M223.85,454 C231.14,454 238.43,454 245.73,454 " fill="none" id="Client3-AS3" style="stroke:#181818;stroke-width:1.0;"/><polygon fill="#181818" points="218.9,454,227.9,458,223.9,454,227.9,450,218.9,454" style="stroke:#181818;stroke-width:1.0;"/><polygon fill="#181818" points="250.34,454,241.34,450,245.34,454,241.34,458,250.34,454" style="stroke:#181818;stroke-width:1.0;"/></g><!--link User4 to Client4--><g id="link_User4_Client4"><path d="M93.89,637 C103.43,637 112.98,637 122.52,637 " fill="none" id="User4-to-Client4" style="stroke:#181818;stroke-width:1.0;"/><polygon fill="#181818" points="127.28,637,118.28,633,122.28,637,118.28,641,127.28,637" style="stroke:#181818;stroke-width:1.0;"/></g><!--link Client4 to AS4--><g id="link_Client4_AS4"><path d="M259.67,637 C266.98,637 274.29,637 281.59,637 " fill="none" id="Client4-AS4" style="stroke:#181818;stroke-width:1.0;"/><polygon fill="#181818" points="254.71,637,263.71,641,259.71,637,263.71,633,254.71,637" style="stroke:#181818;stroke-width:1.0;"/><polygon fill="#181818" points="286.22,637,277.22,633,281.22,637,277.22,641,286.22,637" style="stroke:#181818;stroke-width:1.0;"/></g><!--link User5 to Client5--><g id="link_User5_Client5"><path d="M86.89,820 C96.43,820 105.98,820 115.52,820 " fill="none" id="User5-to-Client5" style="stroke:#181818;stroke-width:1.0;"/><polygon fill="#181818" points="120.28,820,111.28,816,115.28,820,111.28,824,120.28,820" style="stroke:#181818;stroke-width:1.0;"/></g><!--link Client5 to AS5--><g id="link_Client5_AS5"><path d="M252.93,820 C260.27,820 267.62,820 274.96,820 " fill="none" id="Client5-AS5" style="stroke:#181818;stroke-width:1.0;"/><polygon fill="#181818" points="247.93,820,256.93,824,252.93,820,256.93,816,247.93,820" style="stroke:#181818;stroke-width:1.0;"/><polygon fill="#181818" points="279.61,820,270.61,816,274.61,820,270.61,824,279.61,820" style="stroke:#181818;stroke-width:1.0;"/></g><!--link F1 to F2--><!--link F2 to F3--><!--link F3 to F4--><!--link F4 to F5--><!--SRC=[bTH1IyCm503WUtx5OrxTOKrway4Gz2I2Gpo8XswBNN1jIXS54K5XA3Bnv7JiAeCXE14F8gY_PktcoRzWMejDd6wpf_3UQnvVNbF1FH0SIbm8xa25-RGi67SHslOjXq9cUDaB-ktmwdbutnYyDT-FRiABBYmpKTqjmMfXLrGpODLXAGS72EHZbGNt8RDUftwSY1QvE5FcZiTTwWh852t7gz4ulrXZCZHMaJGeKdylsQXGpA6uAjuHiddjrMGD2rcVsLKXir7zuJG6vtQDgWnZ0iEOoXYhI1fe30FcQioXASP8COQ2CJICyI_CF0nUJyBsVNZM39gjKUykw7TWZTgiBdmhck-N5a_GugbQd41cCEDKYrCjLhHOqs9TEpgz3PuUXfq653sVkJOKFE_ZvJpeNlyu2baI77V2nvRC_ZbZCa5DVcfMzc63bgA6YfpCBYVVS9B2YG8d6fmeyD_KaAXMU7b7DPaJJEPCfl6gg8LcCHLsl74gCXMHgOdCI8Ja_o6RtQooIeMwMtbvpv2yQbe48_avQX62vAYqY8a-0G00]--></g></svg>