<?xml version="1.0" encoding="UTF-8" standalone="no"?><svg xmlns="http://www.w3.org/2000/svg" xmlns:xlink="http://www.w3.org/1999/xlink" contentStyleType="text/css" height="668px" preserveAspectRatio="none" style="width:892px;height:668px;background:#FFFFFF;" version="1.1" viewBox="0 0 892 668" width="892px" zoomAndPan="magnify"><defs/><g><line style="stroke:#181818;stroke-width:0.5;stroke-dasharray:5.0,5.0;" x1="23" x2="23" y1="81.4883" y2="587.8359"/><line style="stroke:#181818;stroke-width:0.5;stroke-dasharray:5.0,5.0;" x1="251.5" x2="251.5" y1="81.4883" y2="587.8359"/><line style="stroke:#181818;stroke-width:0.5;stroke-dasharray:5.0,5.0;" x1="602.5" x2="602.5" y1="81.4883" y2="587.8359"/><line style="stroke:#181818;stroke-width:0.5;stroke-dasharray:5.0,5.0;" x1="824.5" x2="824.5" y1="81.4883" y2="587.8359"/><text fill="#000000" font-family="sans-serif" font-size="14" lengthAdjust="spacing" textLength="31" x="5" y="78.5352">User</text><ellipse cx="23.5" cy="13.5" fill="#E2E2F0" rx="8" ry="8" style="stroke:#181818;stroke-width:0.5;"/><path d="M23.5,21.5 L23.5,48.5 M10.5,29.5 L36.5,29.5 M23.5,48.5 L10.5,63.5 M23.5,48.5 L36.5,63.5 " fill="none" style="stroke:#181818;stroke-width:0.5;"/><text fill="#000000" font-family="sans-serif" font-size="14" lengthAdjust="spacing" textLength="31" x="5" y="600.3711">User</text><ellipse cx="23.5" cy="611.8242" fill="#E2E2F0" rx="8" ry="8" style="stroke:#181818;stroke-width:0.5;"/><path d="M23.5,619.8242 L23.5,646.8242 M10.5,627.8242 L36.5,627.8242 M23.5,646.8242 L10.5,661.8242 M23.5,646.8242 L36.5,661.8242 " fill="none" style="stroke:#181818;stroke-width:0.5;"/><rect fill="#AAFFAA" height="30.4883" rx="2.5" ry="2.5" style="stroke:#181818;stroke-width:0.5;" width="54" x="224.5" y="50"/><text fill="#000000" font-family="sans-serif" font-size="14" lengthAdjust="spacing" textLength="40" x="231.5" y="70.5352">Client</text><rect fill="#AAFFAA" height="30.4883" rx="2.5" ry="2.5" style="stroke:#181818;stroke-width:0.5;" width="54" x="224.5" y="586.8359"/><text fill="#000000" font-family="sans-serif" font-size="14" lengthAdjust="spacing" textLength="40" x="231.5" y="607.3711">Client</text><rect fill="#E2E2F0" height="30.4883" rx="2.5" ry="2.5" style="stroke:#181818;stroke-width:0.5;" width="156" x="524.5" y="50"/><text fill="#000000" font-family="sans-serif" font-size="14" lengthAdjust="spacing" textLength="142" x="531.5" y="70.5352">Authorization Server</text><rect fill="#E2E2F0" height="30.4883" rx="2.5" ry="2.5" style="stroke:#181818;stroke-width:0.5;" width="156" x="524.5" y="586.8359"/><text fill="#000000" font-family="sans-serif" font-size="14" lengthAdjust="spacing" textLength="142" x="531.5" y="607.3711">Authorization Server</text><rect fill="#E2E2F0" height="30.4883" rx="2.5" ry="2.5" style="stroke:#181818;stroke-width:0.5;" width="124" x="762.5" y="50"/><text fill="#000000" font-family="sans-serif" font-size="14" lengthAdjust="spacing" textLength="110" x="769.5" y="70.5352">Resource Server</text><rect fill="#E2E2F0" height="30.4883" rx="2.5" ry="2.5" style="stroke:#181818;stroke-width:0.5;" width="124" x="762.5" y="586.8359"/><text fill="#000000" font-family="sans-serif" font-size="14" lengthAdjust="spacing" textLength="110" x="769.5" y="607.3711">Resource Server</text><polygon fill="#181818" points="239.5,108.7988,249.5,112.7988,239.5,116.7988,243.5,112.7988" style="stroke:#181818;stroke-width:1.0;"/><line style="stroke:#181818;stroke-width:1.0;" x1="23.5" x2="245.5" y1="112.7988" y2="112.7988"/><text fill="#000000" font-family="sans-serif" font-size="13" font-weight="bold" lengthAdjust="spacing" textLength="9" x="30.5" y="108.0566">1</text><text fill="#000000" font-family="sans-serif" font-size="13" lengthAdjust="spacing" textLength="191" x="43.5" y="108.0566">open web page and click login</text><polygon fill="#181818" points="590.5,141.1094,600.5,145.1094,590.5,149.1094,594.5,145.1094" style="stroke:#181818;stroke-width:1.0;"/><line style="stroke:#181818;stroke-width:1.0;" x1="251.5" x2="596.5" y1="145.1094" y2="145.1094"/><text fill="#000000" font-family="sans-serif" font-size="13" font-weight="bold" lengthAdjust="spacing" textLength="9" x="258.5" y="140.3672">2</text><text fill="#000000" font-family="sans-serif" font-size="13" lengthAdjust="spacing" textLength="248" x="271.5" y="140.3672">redirect Browser to authorization server</text><path d="M91,125.7988 L91,150.7988 L246,150.7988 L246,135.7988 L236,125.7988 L91,125.7988 " fill="#EEFFEE" style="stroke:#181818;stroke-width:0.5;"/><path d="M236,125.7988 L236,135.7988 L246,135.7988 L236,125.7988 " fill="#EEFFEE" style="stroke:#181818;stroke-width:0.5;"/><text fill="#000000" font-family="sans-serif" font-size="13" lengthAdjust="spacing" textLength="134" x="97" y="143.3672">use Authorization Uri</text><polygon fill="#181818" points="34.5,173.4199,24.5,177.4199,34.5,181.4199,30.5,177.4199" style="stroke:#181818;stroke-width:1.0;"/><line style="stroke:#181818;stroke-width:1.0;" x1="28.5" x2="601.5" y1="177.4199" y2="177.4199"/><text fill="#000000" font-family="sans-serif" font-size="13" font-weight="bold" lengthAdjust="spacing" textLength="9" x="40.5" y="172.6777">3</text><text fill="#000000" font-family="sans-serif" font-size="13" lengthAdjust="spacing" textLength="434" x="53.5" y="172.6777">Display screen and ask user "Do you want to login for that web app?"</text><polygon fill="#181818" points="590.5,202.7305,600.5,206.7305,590.5,210.7305,594.5,206.7305" style="stroke:#181818;stroke-width:1.0;"/><line style="stroke:#181818;stroke-width:1.0;" x1="23.5" x2="596.5" y1="206.7305" y2="206.7305"/><text fill="#000000" font-family="sans-serif" font-size="13" font-weight="bold" lengthAdjust="spacing" textLength="9" x="30.5" y="201.9883">4</text><text fill="#000000" font-family="sans-serif" font-size="13" lengthAdjust="spacing" textLength="255" x="43.5" y="201.9883">User clicked "Yes" to grant authorization</text><line style="stroke:#181818;stroke-width:1.0;" x1="602.5" x2="644.5" y1="236.041" y2="236.041"/><line style="stroke:#181818;stroke-width:1.0;" x1="644.5" x2="644.5" y1="236.041" y2="249.041"/><line style="stroke:#181818;stroke-width:1.0;" x1="603.5" x2="644.5" y1="249.041" y2="249.041"/><polygon fill="#181818" points="613.5,245.041,603.5,249.041,613.5,253.041,609.5,249.041" style="stroke:#181818;stroke-width:1.0;"/><text fill="#000000" font-family="sans-serif" font-size="13" font-weight="bold" lengthAdjust="spacing" textLength="9" x="609.5" y="231.2988">5</text><text fill="#000000" font-family="sans-serif" font-size="13" lengthAdjust="spacing" textLength="195" x="622.5" y="231.2988">generate an authorization code</text><polygon fill="#181818" points="262.5,277.3516,252.5,281.3516,262.5,285.3516,258.5,281.3516" style="stroke:#181818;stroke-width:1.0;"/><line style="stroke:#181818;stroke-width:1.0;" x1="256.5" x2="601.5" y1="281.3516" y2="281.3516"/><text fill="#000000" font-family="sans-serif" font-size="13" font-weight="bold" lengthAdjust="spacing" textLength="9" x="268.5" y="276.6094">6</text><text fill="#000000" font-family="sans-serif" font-size="13" lengthAdjust="spacing" textLength="314" x="281.5" y="276.6094">redirect Browser back, and put access token in url</text><path d="M607,262.041 L607,287.041 L820,287.041 L820,272.041 L810,262.041 L607,262.041 " fill="#EEEEFF" style="stroke:#181818;stroke-width:0.5;"/><path d="M810,262.041 L810,272.041 L820,272.041 L810,262.041 " fill="#EEEEFF" style="stroke:#181818;stroke-width:0.5;"/><text fill="#000000" font-family="sans-serif" font-size="13" lengthAdjust="spacing" textLength="192" x="613" y="279.6094">use Authorization Callback Uri</text><line style="stroke:#181818;stroke-width:1.0;" x1="251.5" x2="293.5" y1="313.6621" y2="313.6621"/><line style="stroke:#181818;stroke-width:1.0;" x1="293.5" x2="293.5" y1="313.6621" y2="326.6621"/><line style="stroke:#181818;stroke-width:1.0;" x1="252.5" x2="293.5" y1="326.6621" y2="326.6621"/><polygon fill="#181818" points="262.5,322.6621,252.5,326.6621,262.5,330.6621,258.5,326.6621" style="stroke:#181818;stroke-width:1.0;"/><text fill="#000000" font-family="sans-serif" font-size="13" font-weight="bold" lengthAdjust="spacing" textLength="9" x="258.5" y="308.9199">7</text><text fill="#000000" font-family="sans-serif" font-size="13" lengthAdjust="spacing" textLength="229" x="271.5" y="308.9199">resolve url to get authorization code</text><polygon fill="#181818" points="590.5,354.9727,600.5,358.9727,590.5,362.9727,594.5,358.9727" style="stroke:#181818;stroke-width:1.0;"/><line style="stroke:#181818;stroke-width:1.0;" x1="251.5" x2="596.5" y1="358.9727" y2="358.9727"/><text fill="#000000" font-family="sans-serif" font-size="13" font-weight="bold" lengthAdjust="spacing" textLength="9" x="258.5" y="354.2305">8</text><text fill="#000000" font-family="sans-serif" font-size="13" lengthAdjust="spacing" textLength="276" x="271.5" y="354.2305">use authorization code to get Access Token</text><path d="M138,339.6621 L138,364.6621 L246,364.6621 L246,349.6621 L236,339.6621 L138,339.6621 " fill="#EEFFEE" style="stroke:#181818;stroke-width:0.5;"/><path d="M236,339.6621 L236,349.6621 L246,349.6621 L236,339.6621 " fill="#EEFFEE" style="stroke:#181818;stroke-width:0.5;"/><text fill="#000000" font-family="sans-serif" font-size="13" lengthAdjust="spacing" textLength="87" x="144" y="357.2305">use Token Uri</text><polygon fill="#181818" points="262.5,387.2832,252.5,391.2832,262.5,395.2832,258.5,391.2832" style="stroke:#181818;stroke-width:1.0;"/><line style="stroke:#181818;stroke-width:1.0;" x1="256.5" x2="601.5" y1="391.2832" y2="391.2832"/><text fill="#000000" font-family="sans-serif" font-size="13" font-weight="bold" lengthAdjust="spacing" textLength="9" x="268.5" y="386.541">9</text><text fill="#000000" font-family="sans-serif" font-size="13" lengthAdjust="spacing" textLength="126" x="281.5" y="386.541">return Access token</text><polygon fill="#181818" points="812.5,419.5938,822.5,423.5938,812.5,427.5938,816.5,423.5938" style="stroke:#181818;stroke-width:1.0;"/><line style="stroke:#181818;stroke-width:1.0;" x1="251.5" x2="818.5" y1="423.5938" y2="423.5938"/><text fill="#000000" font-family="sans-serif" font-size="13" font-weight="bold" lengthAdjust="spacing" textLength="18" x="258.5" y="418.8516">10</text><text fill="#000000" font-family="sans-serif" font-size="13" lengthAdjust="spacing" textLength="207" x="280.5" y="418.8516">use access token to get resource</text><path d="M120,404.2832 L120,429.2832 L246,429.2832 L246,414.2832 L236,404.2832 L120,404.2832 " fill="#EEFFEE" style="stroke:#181818;stroke-width:0.5;"/><path d="M236,404.2832 L236,414.2832 L246,414.2832 L236,404.2832 " fill="#EEFFEE" style="stroke:#181818;stroke-width:0.5;"/><text fill="#000000" font-family="sans-serif" font-size="13" lengthAdjust="spacing" textLength="105" x="126" y="421.8516">use User Info Uri</text><polygon fill="#181818" points="262.5,451.9043,252.5,455.9043,262.5,459.9043,258.5,455.9043" style="stroke:#181818;stroke-width:1.0;"/><line style="stroke:#181818;stroke-width:1.0;" x1="256.5" x2="823.5" y1="455.9043" y2="455.9043"/><text fill="#000000" font-family="sans-serif" font-size="13" font-weight="bold" lengthAdjust="spacing" textLength="18" x="268.5" y="451.1621">11</text><text fill="#000000" font-family="sans-serif" font-size="13" lengthAdjust="spacing" textLength="404" x="290.5" y="451.1621">return resource that indicate User logged in. (Attributes in JSON)</text><line style="stroke:#181818;stroke-width:1.0;" x1="251.5" x2="293.5" y1="485.2148" y2="485.2148"/><line style="stroke:#181818;stroke-width:1.0;" x1="293.5" x2="293.5" y1="485.2148" y2="498.2148"/><line style="stroke:#181818;stroke-width:1.0;" x1="252.5" x2="293.5" y1="498.2148" y2="498.2148"/><polygon fill="#181818" points="262.5,494.2148,252.5,498.2148,262.5,502.2148,258.5,498.2148" style="stroke:#181818;stroke-width:1.0;"/><text fill="#000000" font-family="sans-serif" font-size="13" font-weight="bold" lengthAdjust="spacing" textLength="18" x="258.5" y="480.4727">12</text><text fill="#000000" font-family="sans-serif" font-size="13" lengthAdjust="spacing" textLength="231" x="280.5" y="480.4727">parse JSON to ensure User logged-in</text><line style="stroke:#181818;stroke-width:1.0;" x1="251.5" x2="293.5" y1="527.5254" y2="527.5254"/><line style="stroke:#181818;stroke-width:1.0;" x1="293.5" x2="293.5" y1="527.5254" y2="540.5254"/><line style="stroke:#181818;stroke-width:1.0;" x1="252.5" x2="293.5" y1="540.5254" y2="540.5254"/><polygon fill="#181818" points="262.5,536.5254,252.5,540.5254,262.5,544.5254,258.5,540.5254" style="stroke:#181818;stroke-width:1.0;"/><text fill="#000000" font-family="sans-serif" font-size="13" font-weight="bold" lengthAdjust="spacing" textLength="18" x="258.5" y="522.7832">13</text><text fill="#000000" font-family="sans-serif" font-size="13" lengthAdjust="spacing" textLength="150" x="280.5" y="522.7832">create principal for user</text><polygon fill="#181818" points="34.5,565.8359,24.5,569.8359,34.5,573.8359,30.5,569.8359" style="stroke:#181818;stroke-width:1.0;"/><line style="stroke:#181818;stroke-width:1.0;" x1="28.5" x2="250.5" y1="569.8359" y2="569.8359"/><text fill="#000000" font-family="sans-serif" font-size="13" font-weight="bold" lengthAdjust="spacing" textLength="18" x="40.5" y="565.0938">14</text><text fill="#000000" font-family="sans-serif" font-size="13" lengthAdjust="spacing" textLength="145" x="62.5" y="565.0938">show logged-in screen</text><!--SRC=[VPF1Rjim38RlUWh2lMp0sWV8OOFM9i1ss81uFUoeo8mZH9CCIchGFVr8nLxY96qkCI3g_p_-f4p9CPG_6oIbZCsHu3dnzs0eE-i64p8yUeVyTwVrQgNrxAZH9UyYkRycknYWHNf1Qi0aqEsyS8qf5h9uNhDkbH8tkFyycYmW3XZWW1iOJ8zWGWVMExi77tiNr8Z2zRfT067d26s6hnGFefCZc1bGgcOgn8pWSSjDB9UhrNAfW7yb8SpvdyafP4kfLqgtOYI02tXoQV3c5P8bP43XCcal4WJDKuJNME0WZJ92HOKjHvbt9jTcp31yQVxtAkprkxQ67JI_CJLojIVHcFKmOiYT7WEIoHBBHPysTZWMJa5UXRCnTl-faW-5FQp5bDXpp-qmRY5_Z8bSlwivIL9lvFHel1UvYy1Eqpb1fEXVKDHhUvXlWS-dAdRNHTDrVUJ-9TplpBMUN-1T1PGBXKcm1d56ifv8pdCQ6MZSvNVywtY_XMsyO5ZVGfZqZllYGkUiJBbgy3Brl24kFC07dJEvJScOP6BVsvy_FjuAdTyT4yYn06D8XMPYzxE7DDtYnHRJWLoGD-lh0ij-dzKUtqBQnSD9QdmIwXy0]--></g></svg>