<?xml version="1.0" encoding="UTF-8" standalone="no"?><svg xmlns="http://www.w3.org/2000/svg" xmlns:xlink="http://www.w3.org/1999/xlink" contentStyleType="text/css" height="298px" preserveAspectRatio="none" style="width:713px;height:298px;background:#FFFFFF;" version="1.1" viewBox="0 0 713 298" width="713px" zoomAndPan="magnify"><defs/><g><!--MD5=[48951e08666e13d8ea6eb272e88cce84]
class jpnote--><g id="elem_jpnote"><rect codeLine="12" fill="#F1F1F1" height="123.9531" id="jpnote" rx="2.5" ry="2.5" style="stroke:#181818;stroke-width:0.5;" width="140" x="566.5" y="7"/><ellipse cx="604" cy="25.2441" fill="#FFAAAA" rx="11" ry="11" style="stroke:#181818;stroke-width:1.0;"/><path d="M605.3418,32.4941 L602.8931,32.4941 L602.8931,22.2427 L599.7471,22.2427 L599.7471,20.1011 L608.4878,20.1011 L608.4878,22.2427 L605.3418,22.2427 Z " fill="#000000"/><text fill="#000000" font-family="sans-serif" font-size="14" lengthAdjust="spacing" textLength="48" x="628" y="30.5352">JP Note</text><line style="stroke:#181818;stroke-width:0.5;" x1="567.5" x2="705.5" y1="43.4883" y2="43.4883"/><text fill="#000000" font-family="sans-serif" font-size="14" lengthAdjust="spacing" textLength="88" x="577.5" y="66.0234">front STRING</text><text fill="#000000" font-family="sans-serif" font-size="14" lengthAdjust="spacing" textLength="86" x="577.5" y="92.5117">back STRING</text><text fill="#000000" font-family="sans-serif" font-size="14" lengthAdjust="spacing" textLength="118" x="577.5" y="119">comment STRING</text></g><g id="elem_GMN3"><path d="M6,6.5 L6,131.7422 A0,0 0 0 0 6,131.7422 L531,131.7422 A0,0 0 0 0 531,131.7422 L531,73 L566.16,69 L531,65 L531,16.5 L521,6.5 L6,6.5 A0,0 0 0 0 6,6.5 " fill="#FFFFFF" style="stroke:#181818;stroke-width:0.5;"/><path d="M521,6.5 L521,16.5 L531,16.5 L521,6.5 " fill="#FFFFFF" style="stroke:#181818;stroke-width:0.5;"/><text fill="#000000" font-family="sans-serif" font-size="13" lengthAdjust="spacing" textLength="4" x="22" y="36.0684"> </text><text fill="#000000" font-family="sans-serif" font-size="13" font-weight="bold" lengthAdjust="spacing" textLength="33" x="26" y="36.0684">front</text><text fill="#000000" font-family="sans-serif" font-size="13" lengthAdjust="spacing" textLength="4" x="59" y="36.0684"> </text><text fill="#000000" font-family="sans-serif" font-size="13" lengthAdjust="spacing" textLength="4" x="105" y="36.0684"> </text><text fill="#000000" font-family="sans-serif" font-size="13" font-weight="bold" lengthAdjust="spacing" textLength="32" x="109" y="36.0684">back</text><text fill="#000000" font-family="sans-serif" font-size="13" lengthAdjust="spacing" textLength="4" x="141" y="36.0684"> </text><text fill="#000000" font-family="sans-serif" font-size="13" lengthAdjust="spacing" textLength="4" x="342" y="36.0684"> </text><text fill="#000000" font-family="sans-serif" font-size="13" font-weight="bold" lengthAdjust="spacing" textLength="63" x="346" y="36.0684">comment</text><text fill="#000000" font-family="sans-serif" font-size="13" lengthAdjust="spacing" textLength="4" x="409" y="36.0684"> </text><text fill="#000000" font-family="sans-serif" font-size="13" lengthAdjust="spacing" textLength="65" x="26" y="61.3789">おとこのこ</text><text fill="#000000" font-family="sans-serif" font-size="13" lengthAdjust="spacing" textLength="146" x="109" y="61.3789">小男生 あの...はうるさい</text><text fill="#000000" font-family="sans-serif" font-size="13" lengthAdjust="spacing" textLength="39" x="346" y="61.3789">男の子</text><text fill="#000000" font-family="sans-serif" font-size="13" lengthAdjust="spacing" textLength="65" x="26" y="86.6895">おんなのこ</text><text fill="#000000" font-family="sans-serif" font-size="13" lengthAdjust="spacing" textLength="133" x="109" y="86.6895">小女孩 その...は可愛い</text><text fill="#000000" font-family="sans-serif" font-size="13" lengthAdjust="spacing" textLength="39" x="346" y="86.6895">女の子</text><text fill="#000000" font-family="sans-serif" font-size="13" lengthAdjust="spacing" textLength="52" x="26" y="112">こんざつ</text><text fill="#000000" font-family="sans-serif" font-size="13" lengthAdjust="spacing" textLength="219" x="109" y="112">擁擠、雜亂 その道は車で[...]している</text><text fill="#000000" font-family="sans-serif" font-size="13" lengthAdjust="spacing" textLength="156" x="346" y="112">混雑，名詞但也能加上する</text><line style="stroke:#000000;stroke-width:0.5;" x1="17" x2="511" y1="18.5" y2="18.5"/><line style="stroke:#000000;stroke-width:0.5;" x1="17" x2="511" y1="43.8105" y2="43.8105"/><line style="stroke:#000000;stroke-width:0.5;" x1="17" x2="511" y1="69.1211" y2="69.1211"/><line style="stroke:#000000;stroke-width:0.5;" x1="17" x2="511" y1="94.4316" y2="94.4316"/><line style="stroke:#000000;stroke-width:0.5;" x1="17" x2="511" y1="119.7422" y2="119.7422"/><line style="stroke:#000000;stroke-width:0.5;" x1="17" x2="17" y1="18.5" y2="119.7422"/><line style="stroke:#000000;stroke-width:0.5;" x1="100" x2="100" y1="18.5" y2="119.7422"/><line style="stroke:#000000;stroke-width:0.5;" x1="337" x2="337" y1="18.5" y2="119.7422"/><line style="stroke:#000000;stroke-width:0.5;" x1="511" x2="511" y1="18.5" y2="119.7422"/></g><!--MD5=[6b212af28ef5fdb76595b8bb60133725]
class engnote--><g id="elem_engnote"><rect codeLine="24" fill="#F1F1F1" height="97.4648" id="engnote" rx="2.5" ry="2.5" style="stroke:#181818;stroke-width:0.5;" width="110" x="581.5" y="193"/><ellipse cx="599.2" cy="211.2441" fill="#FFAAAA" rx="11" ry="11" style="stroke:#181818;stroke-width:1.0;"/><path d="M600.5418,218.4941 L598.0931,218.4941 L598.0931,208.2427 L594.9471,208.2427 L594.9471,206.1011 L603.6878,206.1011 L603.6878,208.2427 L600.5418,208.2427 Z " fill="#000000"/><text fill="#000000" font-family="sans-serif" font-size="14" lengthAdjust="spacing" textLength="62" x="618.8" y="216.5352">Eng Note</text><line style="stroke:#181818;stroke-width:0.5;" x1="582.5" x2="690.5" y1="229.4883" y2="229.4883"/><text fill="#000000" font-family="sans-serif" font-size="14" lengthAdjust="spacing" textLength="88" x="592.5" y="252.0234">front STRING</text><text fill="#000000" font-family="sans-serif" font-size="14" lengthAdjust="spacing" textLength="86" x="592.5" y="278.5117">back STRING</text></g><g id="elem_GMN7"><path d="M186.5,191.5 L186.5,291.4316 A0,0 0 0 0 186.5,291.4316 L546.5,291.4316 A0,0 0 0 0 546.5,291.4316 L546.5,245.5 L581.36,241.5 L546.5,237.5 L546.5,201.5 L536.5,191.5 L186.5,191.5 A0,0 0 0 0 186.5,191.5 " fill="#FFFFFF" style="stroke:#181818;stroke-width:0.5;"/><path d="M536.5,191.5 L536.5,201.5 L546.5,201.5 L536.5,191.5 " fill="#FFFFFF" style="stroke:#181818;stroke-width:0.5;"/><text fill="#000000" font-family="sans-serif" font-size="13" lengthAdjust="spacing" textLength="4" x="202.5" y="221.0684"> </text><text fill="#000000" font-family="sans-serif" font-size="13" font-weight="bold" lengthAdjust="spacing" textLength="33" x="206.5" y="221.0684">front</text><text fill="#000000" font-family="sans-serif" font-size="13" lengthAdjust="spacing" textLength="4" x="239.5" y="221.0684"> </text><text fill="#000000" font-family="sans-serif" font-size="13" lengthAdjust="spacing" textLength="4" x="254.5" y="221.0684"> </text><text fill="#000000" font-family="sans-serif" font-size="13" font-weight="bold" lengthAdjust="spacing" textLength="32" x="258.5" y="221.0684">back</text><text fill="#000000" font-family="sans-serif" font-size="13" lengthAdjust="spacing" textLength="22" x="206.5" y="246.3789">ape</text><text fill="#000000" font-family="sans-serif" font-size="13" lengthAdjust="spacing" textLength="259" x="258.5" y="246.3789">模仿, 學習 Instagram is clearly [...] TikTok</text><text fill="#000000" font-family="sans-serif" font-size="13" lengthAdjust="spacing" textLength="34" x="206.5" y="271.6895">apple</text><text fill="#000000" font-family="sans-serif" font-size="13" lengthAdjust="spacing" textLength="230" x="258.5" y="271.6895">令狗 An [...] a day keeps money away</text><line style="stroke:#000000;stroke-width:0.5;" x1="197.5" x2="526.5" y1="203.5" y2="203.5"/><line style="stroke:#000000;stroke-width:0.5;" x1="197.5" x2="526.5" y1="228.8105" y2="228.8105"/><line style="stroke:#000000;stroke-width:0.5;" x1="197.5" x2="526.5" y1="254.1211" y2="254.1211"/><line style="stroke:#000000;stroke-width:0.5;" x1="197.5" x2="526.5" y1="279.4316" y2="279.4316"/><line style="stroke:#000000;stroke-width:0.5;" x1="197.5" x2="197.5" y1="203.5" y2="279.4316"/><line style="stroke:#000000;stroke-width:0.5;" x1="249.5" x2="249.5" y1="203.5" y2="279.4316"/><line style="stroke:#000000;stroke-width:0.5;" x1="526.5" x2="526.5" y1="203.5" y2="279.4316"/></g><!--MD5=[0760077d6a6973322067d1847187f1e4]
link jpnote to engnote--><g id="link_jpnote_engnote"><path codeLine="35" d="M636.5,131.07 C636.5,151.43 636.5,173.78 636.5,192.95 " fill="none" id="jpnote-engnote" style="stroke:#181818;stroke-width:1.0;"/></g><!--MD5=[99bdf6da56f72f5f9c4570d42db06228]
@startuml
!define Table(name,desc) class name as "desc" << (T,#FFAAAA) >>
!define primary_key(x) <b>x</b>
!define foreign_key(x) <color:green>x</color>
!define not_null(x) <u>x</u>
hide methods
hide stereotypes

skinparam noteBackgroundColor #FFF
skinparam padding 5

' entities
Table(jpnote, "JP Note") {
front STRING
back STRING
comment STRING
}
note left
| <b>front</b> | <b>back</b> | <b>comment</b> |
| おとこのこ | 小男生 あの...はうるさい | 男の子 |
| おんなのこ | 小女孩 その...は可愛い | 女の子 |
| こんざつ | 擁擠、雜亂 その道は車で[...]している | 混雑，名詞但也能加上する |
end note

Table(engnote, "Eng Note") {
front STRING
back STRING
}

note left
| <b>front</b> | <b>back</b>|
| ape | 模仿, 學習 Instagram is clearly [...] TikTok |
| apple | 令狗 An [...] a day keeps money away|
end note

jpnote -down- engnote


@enduml

@startuml
hide methods
hide stereotypes

skinparam noteBackgroundColor #FFF
skinparam padding 5

class jpnote as "JP Note" << (T,#FFAAAA) >> {
front STRING
back STRING
comment STRING
}
note left
| <b>front</b> | <b>back</b> | <b>comment</b> |
| おとこのこ | 小男生 あの...はうるさい | 男の子 |
| おんなのこ | 小女孩 その...は可愛い | 女の子 |
| こんざつ | 擁擠、雜亂 その道は車で[...]している | 混雑，名詞但也能加上する |
end note

class engnote as "Eng Note" << (T,#FFAAAA) >> {
front STRING
back STRING
}

note left
| <b>front</b> | <b>back</b>|
| ape | 模仿, 學習 Instagram is clearly [...] TikTok |
| apple | 令狗 An [...] a day keeps money away|
end note

jpnote -down- engnote


@enduml

PlantUML version 1.2022.7(Tue Aug 23 02:01:30 JST 2022)
(GPL source distribution)
Java Runtime: OpenJDK Runtime Environment
JVM: OpenJDK 64-Bit Server VM
Default Encoding: UTF-8
Language: en
Country: JP
--></g></svg>