<?xml version="1.0" encoding="UTF-8" standalone="no"?><svg xmlns="http://www.w3.org/2000/svg" xmlns:xlink="http://www.w3.org/1999/xlink" contentStyleType="text/css" height="516px" preserveAspectRatio="none" style="width:1071px;height:516px;background:#FFFFFF;" version="1.1" viewBox="0 0 1071 516" width="1071px" zoomAndPan="magnify"><defs/><g><!--entity User--><g id="elem_User"><ellipse cx="21.5" cy="14" fill="#F1F1F1" rx="8" ry="8" style="stroke:#181818;stroke-width:0.5;"/><path d="M21.5,22 L21.5,49 M8.5,30 L34.5,30 M21.5,49 L8.5,64 M21.5,49 L34.5,64 " fill="none" style="stroke:#181818;stroke-width:0.5;"/><text fill="#000000" font-family="sans-serif" font-size="14" lengthAdjust="spacing" textLength="31" x="6" y="79.0352">User</text></g><!--entity Ctrl--><g id="elem_Ctrl"><rect fill="#F1F1F1" height="46.4883" rx="2.5" ry="2.5" style="stroke:#181818;stroke-width:0.5;" width="181" x="155" y="20.5"/><rect fill="#F1F1F1" height="10" style="stroke:#181818;stroke-width:0.5;" width="15" x="316" y="25.5"/><rect fill="#F1F1F1" height="2" style="stroke:#181818;stroke-width:0.5;" width="4" x="314" y="27.5"/><rect fill="#F1F1F1" height="2" style="stroke:#181818;stroke-width:0.5;" width="4" x="314" y="31.5"/><text fill="#000000" font-family="sans-serif" font-size="14" lengthAdjust="spacing" textLength="141" x="170" y="54.0352">SomePageController</text></g><!--entity AF--><g id="elem_AF"><rect fill="#F1F1F1" height="46.4883" rx="2.5" ry="2.5" style="stroke:#181818;stroke-width:0.5;" width="176" x="550.5" y="20.5"/><rect fill="#F1F1F1" height="10" style="stroke:#181818;stroke-width:0.5;" width="15" x="706.5" y="25.5"/><rect fill="#F1F1F1" height="2" style="stroke:#181818;stroke-width:0.5;" width="4" x="704.5" y="27.5"/><rect fill="#F1F1F1" height="2" style="stroke:#181818;stroke-width:0.5;" width="4" x="704.5" y="31.5"/><text fill="#000000" font-family="sans-serif" font-size="14" lengthAdjust="spacing" textLength="136" x="565.5" y="54.0352">AuthenticationFilter</text></g><!--entity AM--><g id="elem_AM"><rect fill="#F1F1F1" height="46.4883" rx="2.5" ry="2.5" style="stroke:#181818;stroke-width:0.5;" width="201" x="538" y="188.5"/><rect fill="#F1F1F1" height="10" style="stroke:#181818;stroke-width:0.5;" width="15" x="719" y="193.5"/><rect fill="#F1F1F1" height="2" style="stroke:#181818;stroke-width:0.5;" width="4" x="717" y="195.5"/><rect fill="#F1F1F1" height="2" style="stroke:#181818;stroke-width:0.5;" width="4" x="717" y="199.5"/><text fill="#000000" font-family="sans-serif" font-size="14" lengthAdjust="spacing" textLength="161" x="553" y="222.0352">AuthenticationManager</text></g><!--entity AP--><g id="elem_AP"><rect fill="#F1F1F1" height="46.4883" rx="2.5" ry="2.5" style="stroke:#181818;stroke-width:0.5;" width="198" x="539.5" y="357.5"/><rect fill="#F1F1F1" height="10" style="stroke:#181818;stroke-width:0.5;" width="15" x="717.5" y="362.5"/><rect fill="#F1F1F1" height="2" style="stroke:#181818;stroke-width:0.5;" width="4" x="715.5" y="364.5"/><rect fill="#F1F1F1" height="2" style="stroke:#181818;stroke-width:0.5;" width="4" x="715.5" y="368.5"/><text fill="#000000" font-family="sans-serif" font-size="14" lengthAdjust="spacing" textLength="158" x="554.5" y="391.0352">AuthenticationProvider</text></g><!--entity SC--><g id="elem_SC"><rect fill="#F1F1F1" height="46.4883" rx="2.5" ry="2.5" style="stroke:#181818;stroke-width:0.5;" width="149" x="916" y="20.5"/><rect fill="#F1F1F1" height="10" style="stroke:#181818;stroke-width:0.5;" width="15" x="1045" y="25.5"/><rect fill="#F1F1F1" height="2" style="stroke:#181818;stroke-width:0.5;" width="4" x="1043" y="27.5"/><rect fill="#F1F1F1" height="2" style="stroke:#181818;stroke-width:0.5;" width="4" x="1043" y="31.5"/><text fill="#000000" font-family="sans-serif" font-size="14" lengthAdjust="spacing" textLength="109" x="931" y="54.0352">SecurityContext</text></g><!--entity UDS--><g id="elem_UDS"><rect fill="#F1F1F1" height="46.4883" rx="2.5" ry="2.5" style="stroke:#181818;stroke-width:0.5;" width="165" x="457" y="464.5"/><rect fill="#F1F1F1" height="10" style="stroke:#181818;stroke-width:0.5;" width="15" x="602" y="469.5"/><rect fill="#F1F1F1" height="2" style="stroke:#181818;stroke-width:0.5;" width="4" x="600" y="471.5"/><rect fill="#F1F1F1" height="2" style="stroke:#181818;stroke-width:0.5;" width="4" x="600" y="475.5"/><text fill="#000000" font-family="sans-serif" font-size="14" lengthAdjust="spacing" textLength="125" x="472" y="498.0352">UserDetailsService</text></g><!--entity PE--><g id="elem_PE"><rect fill="#F1F1F1" height="46.4883" rx="2.5" ry="2.5" style="stroke:#181818;stroke-width:0.5;" width="161" x="657" y="464.5"/><rect fill="#F1F1F1" height="10" style="stroke:#181818;stroke-width:0.5;" width="15" x="798" y="469.5"/><rect fill="#F1F1F1" height="2" style="stroke:#181818;stroke-width:0.5;" width="4" x="796" y="471.5"/><rect fill="#F1F1F1" height="2" style="stroke:#181818;stroke-width:0.5;" width="4" x="796" y="475.5"/><text fill="#000000" font-family="sans-serif" font-size="14" lengthAdjust="spacing" textLength="121" x="672" y="498.0352">PasswordEncoder</text></g><!--link User to Ctrl--><g id="link_User_Ctrl"><path d="M37.25,43.5 C60.46,43.5 105.68,43.5 148.07,43.5 " fill="none" id="User-to-Ctrl" style="stroke:#181818;stroke-width:1.0;"/><polygon fill="#181818" points="153.06,43.5,144.06,39.5,148.06,43.5,144.06,47.5,153.06,43.5" style="stroke:#181818;stroke-width:1.0;"/><text fill="#000000" font-family="sans-serif" font-size="13" lengthAdjust="spacing" textLength="81" x="55.5" y="37.0684">1. open page</text></g><!--link Ctrl to AF--><g id="link_Ctrl_AF"><path d="M336.16,43.5 C398.4,43.5 480.83,43.5 543.9,43.5 " fill="none" id="Ctrl-to-AF" style="stroke:#181818;stroke-width:1.0;"/><polygon fill="#181818" points="548.82,43.5,539.82,39.5,543.82,43.5,539.82,47.5,548.82,43.5" style="stroke:#181818;stroke-width:1.0;"/><text fill="#000000" font-family="sans-serif" font-size="13" lengthAdjust="spacing" textLength="178" x="354.25" y="37.0684">2. request is caught by filter</text></g><!--link AF to AM--><g id="link_AF_AM"><path d="M606.85,66.88 C593.24,78.46 578.8,93.87 571.5,111.5 C563.51,130.8 562.31,139.74 571.5,158.5 C576.36,168.43 584.14,177.01 592.7,184.17 " fill="none" id="AF-to-AM" style="stroke:#181818;stroke-width:1.0;"/><polygon fill="#181818" points="596.34,187.07,591.7876,178.3364,592.4273,183.957,586.8067,184.5967,596.34,187.07" style="stroke:#181818;stroke-width:1.0;"/><text fill="#000000" font-family="sans-serif" font-size="13" lengthAdjust="spacing" textLength="103" x="572.5" y="125.0684">3. filter delegate</text><text fill="#000000" font-family="sans-serif" font-size="13" lengthAdjust="spacing" textLength="91" x="578.5" y="140.3789">authentication</text><text fill="#000000" font-family="sans-serif" font-size="13" lengthAdjust="spacing" textLength="71" x="588.5" y="155.6895">to manager</text></g><!--link AM to AF--><g id="link_AM_AF"><path d="M662.2,188.04 C669.52,179.56 676.67,169.33 680.5,158.5 C687.46,138.8 686.27,131.58 680.5,111.5 C676.45,97.43 668.49,83.45 660.57,71.93 " fill="none" id="AM-to-AF" style="stroke:#181818;stroke-width:1.0;"/><polygon fill="#181818" points="657.83,68.06,659.7934,77.7112,660.7308,72.1325,666.3094,73.0699,657.83,68.06" style="stroke:#181818;stroke-width:1.0;"/></g><!--link AM to AP--><g id="link_AM_AP"><path d="M582.61,234.92 C570.6,242.46 559.44,252.19 552.5,264.5 C538.75,288.89 538.75,303.11 552.5,327.5 C558.41,337.98 567.38,346.59 577.33,353.58 " fill="none" id="AM-to-AP" style="stroke:#181818;stroke-width:1.0;"/><polygon fill="#181818" points="581.35,356.24,576.0474,347.9404,577.1788,353.483,571.6362,354.6144,581.35,356.24" style="stroke:#181818;stroke-width:1.0;"/><text fill="#000000" font-family="sans-serif" font-size="13" lengthAdjust="spacing" textLength="95" x="568" y="278.0684">4. Manager use</text><text fill="#000000" font-family="sans-serif" font-size="13" lengthAdjust="spacing" textLength="116" x="557.5" y="293.3789">implementation of</text><text fill="#000000" font-family="sans-serif" font-size="13" lengthAdjust="spacing" textLength="87" x="572" y="308.6895">authenticaton</text><text fill="#000000" font-family="sans-serif" font-size="13" lengthAdjust="spacing" textLength="85" x="575" y="324">from Provider</text></g><!--link AP to AM--><g id="link_AP_AM"><path d="M663.3,357.22 C670.98,348.76 678.47,338.49 682.5,327.5 C692.13,301.21 692.13,290.79 682.5,264.5 C679.17,255.4 673.45,246.79 667.23,239.3 " fill="none" id="AP-to-AM" style="stroke:#181818;stroke-width:1.0;"/><polygon fill="#181818" points="664.3,235.92,667.1757,245.3397,667.5763,239.697,673.2189,240.0976,664.3,235.92" style="stroke:#181818;stroke-width:1.0;"/><text fill="#000000" font-family="sans-serif" font-size="13" lengthAdjust="spacing" textLength="206" x="690.5" y="301.0684">5: return result of authentication</text></g><!--link AP to UDS--><g id="link_AP_UDS"><path d="M617.5,403.77 C602.15,420.06 581.24,442.23 564.93,459.53 " fill="none" id="AP-to-UDS" style="stroke:#181818;stroke-width:1.0;stroke-dasharray:7.0,7.0;"/><polygon fill="#181818" points="561.5,463.16,570.589,459.3665,564.9344,459.5261,564.7748,453.8715,561.5,463.16" style="stroke:#181818;stroke-width:1.0;"/></g><!--link AP to PE--><g id="link_AP_PE"><path d="M659.5,403.77 C674.85,420.06 695.76,442.23 712.07,459.53 " fill="none" id="AP-to-PE" style="stroke:#181818;stroke-width:1.0;stroke-dasharray:7.0,7.0;"/><polygon fill="#181818" points="715.5,463.16,712.2252,453.8715,712.0656,459.5261,706.411,459.3665,715.5,463.16" style="stroke:#181818;stroke-width:1.0;"/></g><!--link AF to SC--><g id="link_AF_SC"><path d="M726.87,43.5 C782.85,43.5 854.72,43.5 909.28,43.5 " fill="none" id="AF-to-SC" style="stroke:#181818;stroke-width:1.0;"/><polygon fill="#181818" points="913.99,43.5,904.99,39.5,908.99,43.5,904.99,47.5,913.99,43.5" style="stroke:#181818;stroke-width:1.0;"/><text fill="#000000" font-family="sans-serif" font-size="13" lengthAdjust="spacing" textLength="153" x="744.75" y="37.0684">6: save result to context</text></g><!--SRC=[TP5DZiCW38NtdC8Nc4Zpks1HAKgRNIIagBjk6EgsI0GoO3hJsuz9KYbTT0MntpFlSxIX466VC0eJXZ5uz0Hz653fCpR1KmpEOGITeA7eLg8wquLFQpJPu5lhQ9RLxLDHfprFdLNTKvMAuMgFYqojOw79qTAjnC8_Als-MVKBnHP9MvTwZ5Thi4ZsstwbKJgbtn2FEs_2yeRQ2L6iyBAP62MyLX16z31oMb5AtAfR2MyLHFp9c0Xi0gFp-KBmVOFJ12_gjeoeEmdlrLA38peyQyA3rm-G1qy1XdaVekucevBmKS5zIJcn2UmmEXpODxaWd82Bgr5Suy8fXW7kUnErWghQJE3BbH7vzhAa-vICGJbwFb9sLAO-ffiI5NKxGKNBeFpPDnA-92HznRkLASpyEyG_]--></g></svg>