<?xml version="1.0" encoding="UTF-8" standalone="no"?><svg xmlns="http://www.w3.org/2000/svg" xmlns:xlink="http://www.w3.org/1999/xlink" contentStyleType="text/css" height="281px" preserveAspectRatio="none" style="width:813px;height:281px;background:#FFFFFF;" version="1.1" viewBox="0 0 813 281" width="813px" zoomAndPan="magnify"><defs/><g><text fill="#000000" font-family="sans-serif" font-size="14" font-weight="bold" lengthAdjust="spacing" textLength="72" x="363.5" y="23.5352">OAuth 2.0</text><!--entity user--><g id="elem_user"><ellipse cx="62" cy="51.4883" fill="#F1F1F1" rx="8" ry="8" style="stroke:#181818;stroke-width:0.5;"/><path d="M62,59.4883 L62,86.4883 M49,67.4883 L75,67.4883 M62,86.4883 L49,101.4883 M62,86.4883 L75,101.4883 " fill="none" style="stroke:#181818;stroke-width:0.5;"/><text fill="#000000" font-family="sans-serif" font-size="14" lengthAdjust="spacing" textLength="31" x="6" y="116.5234">User</text><text fill="#000000" font-family="sans-serif" font-size="14" lengthAdjust="spacing" textLength="112" x="6" y="133.0117">Resource Owner</text></g><!--entity client--><g id="elem_client"><rect fill="#AAFFAA" height="62.9766" rx="2.5" ry="2.5" style="stroke:#181818;stroke-width:0.5;" width="111" x="339.5" y="57.9883"/><rect fill="#AAFFAA" height="10" style="stroke:#181818;stroke-width:0.5;" width="15" x="430.5" y="62.9883"/><rect fill="#AAFFAA" height="2" style="stroke:#181818;stroke-width:0.5;" width="4" x="428.5" y="64.9883"/><rect fill="#AAFFAA" height="2" style="stroke:#181818;stroke-width:0.5;" width="4" x="428.5" y="68.9883"/><text fill="#000000" font-family="sans-serif" font-size="14" lengthAdjust="spacing" textLength="40" x="354.5" y="91.5234">Client</text><text fill="#000000" font-family="sans-serif" font-size="14" lengthAdjust="spacing" textLength="71" x="354.5" y="108.0117">(Web App)</text></g><!--entity auth_server--><g id="elem_auth_server"><rect fill="#F1F1F1" height="62.9766" rx="2.5" ry="2.5" style="stroke:#181818;stroke-width:0.5;" width="182" x="184" y="212.9883"/><rect fill="#F1F1F1" height="10" style="stroke:#181818;stroke-width:0.5;" width="15" x="346" y="217.9883"/><rect fill="#F1F1F1" height="2" style="stroke:#181818;stroke-width:0.5;" width="4" x="344" y="219.9883"/><rect fill="#F1F1F1" height="2" style="stroke:#181818;stroke-width:0.5;" width="4" x="344" y="223.9883"/><text fill="#000000" font-family="sans-serif" font-size="14" lengthAdjust="spacing" textLength="142" x="199" y="246.5234">Authorization Server</text><text fill="#000000" font-family="sans-serif" font-size="14" lengthAdjust="spacing" textLength="120" x="199" y="263.0117">(Google/Github..)</text></g><!--entity res_server--><g id="elem_res_server"><polygon fill="#F1F1F1" points="581.5,67.9883,591.5,57.9883,786.5,57.9883,786.5,110.9648,776.5,120.9648,581.5,120.9648,581.5,67.9883" style="stroke:#181818;stroke-width:0.5;"/><line style="stroke:#181818;stroke-width:0.5;" x1="776.5" x2="786.5" y1="67.9883" y2="57.9883"/><line style="stroke:#181818;stroke-width:0.5;" x1="581.5" x2="776.5" y1="67.9883" y2="67.9883"/><line style="stroke:#181818;stroke-width:0.5;" x1="776.5" x2="776.5" y1="67.9883" y2="120.9648"/><text fill="#000000" font-family="sans-serif" font-size="14" lengthAdjust="spacing" textLength="110" x="596.5" y="91.5234">Resource Server</text><text fill="#000000" font-family="sans-serif" font-size="14" lengthAdjust="spacing" textLength="165" x="596.5" y="108.0117">(Google Driver/Github..)</text></g><!--link user to client--><g id="link_user_client"><path d="M118.49,89.4883 C177.96,89.4883 271.32,89.4883 332.84,89.4883 " fill="none" id="user-to-client" style="stroke:#181818;stroke-width:1.0;"/><polygon fill="#181818" points="337.55,89.4883,328.55,85.4883,332.55,89.4883,328.55,93.4883,337.55,89.4883" style="stroke:#181818;stroke-width:1.0;"/><text fill="#000000" font-family="sans-serif" font-size="13" lengthAdjust="spacing" textLength="185" x="136.25" y="83.0566">1: Open Web App, click Login</text></g><!--link client to auth_server--><g id="link_client_auth_server"><path d="M339.1,108.8283 C312.56,120.6683 283.35,139.0083 268,165.9883 C261.11,178.1083 260.91,193.0483 263.13,206.5683 " fill="none" id="client-to-auth_server" style="stroke:#181818;stroke-width:1.0;"/><polygon fill="#181818" points="264.02,211.1783,266.2525,201.5858,263.0779,206.2678,258.3958,203.0932,264.02,211.1783" style="stroke:#181818;stroke-width:1.0;"/><text fill="#000000" font-family="sans-serif" font-size="13" lengthAdjust="spacing" textLength="230" x="269" y="179.5566">2: Client forward User to Auth server</text></g><!--link auth_server to client--><g id="link_auth_server_client"><path d="M366.32,231.3683 C423.79,221.6583 490.32,205.8383 508,182.9883 C529.79,154.8183 493.64,129.7083 456.57,112.7883 " fill="none" id="auth_server-to-client" style="stroke:#181818;stroke-width:1.0;"/><polygon fill="#181818" points="452.01,110.7583,458.5949,118.0821,456.5749,112.7982,461.8588,110.7783,452.01,110.7583" style="stroke:#181818;stroke-width:1.0;"/><text fill="#000000" font-family="sans-serif" font-size="13" lengthAdjust="spacing" textLength="289" x="516" y="179.5566">4: Redirect to Client and provide access token</text></g><!--link user to auth_server--><g id="link_user_auth_server"><path d="M62.59,136.2483 C65.02,152.7383 70.48,170.3683 82,182.9883 C106.62,209.9483 143.08,224.9983 177.7,233.3483 " fill="none" id="user-to-auth_server" style="stroke:#181818;stroke-width:1.0;"/><polygon fill="#181818" points="182.22,234.3883,174.355,228.4602,177.349,233.2598,172.5494,236.2538,182.22,234.3883" style="stroke:#181818;stroke-width:1.0;"/><text fill="#000000" font-family="sans-serif" font-size="13" lengthAdjust="spacing" textLength="171" x="83" y="179.5566">3: User grant Authorization</text></g><!--link client to res_server--><g id="link_client_res_server"><path d="M450.72,89.4883 C485.83,89.4883 532.34,89.4883 574.6,89.4883 " fill="none" id="client-to-res_server" style="stroke:#181818;stroke-width:1.0;"/><polygon fill="#181818" points="579.55,89.4883,570.55,85.4883,574.55,89.4883,570.55,93.4883,579.55,89.4883" style="stroke:#181818;stroke-width:1.0;"/><text fill="#000000" font-family="sans-serif" font-size="13" lengthAdjust="spacing" textLength="94" x="469" y="83.0566">5: get resource</text></g><!--SRC=[NP11ImCn48Nl-HMFzLB1hbhraeEmAEr5A5J4Iq7IxBWDhPbbDjk2lzvakxNRda8oxytxye8BMyAyQCCQa_nEAMC32xAFXcJf5zHmApOAzfuaWsdGne6o_5Ep9n-GlMnTF9T-z4ah57LztQbizughefXEYsAeJqaixjS4nnxl9BiKD9enLrkwdRcmRbTvVjXYelQhwIJASqd8_e4kZ7WL5-yNVg7cQ5U96-FddapZNcDUaqUFVPC6TeCthfnNFVwuvBsFdW67naJZy6Tyi-oDb4XT8J2w4lkyOzoPzK4Vj9MOQ3zhGWs4Gyn7ZGMLJiY65D4d6r-Y5jwvs8cnbfec3ZTq0XTNhKDSSsf0uqcZef2UkWhL7m00]--></g></svg>